<?xml version="1.0" encoding="utf-8" standalone="no"?>
<!DOCTYPE svg PUBLIC "-//W3C//DTD SVG 1.1//EN"
  "http://www.w3.org/Graphics/SVG/1.1/DTD/svg11.dtd">
<svg xmlns:xlink="http://www.w3.org/1999/xlink" width="432pt" height="288pt" viewBox="0 0 432 288" xmlns="http://www.w3.org/2000/svg" version="1.1">
 <metadata>
  <rdf:RDF xmlns:dc="http://purl.org/dc/elements/1.1/" xmlns:cc="http://creativecommons.org/ns#" xmlns:rdf="http://www.w3.org/1999/02/22-rdf-syntax-ns#">
   <cc:Work>
    <dc:type rdf:resource="http://purl.org/dc/dcmitype/StillImage"/>
    <dc:date>2022-11-07T14:15:31.097218</dc:date>
    <dc:format>image/svg+xml</dc:format>
    <dc:creator>
     <cc:Agent>
      <dc:title>Matplotlib v3.5.2, https://matplotlib.org/</dc:title>
     </cc:Agent>
    </dc:creator>
   </cc:Work>
  </rdf:RDF>
 </metadata>
 <defs>
  <style type="text/css">*{stroke-linejoin: round; stroke-linecap: butt}</style>
 </defs>
 <g id="figure_1">
  <g id="patch_1">
   <path d="M 0 288 
L 432 288 
L 432 0 
L 0 0 
L 0 288 
z
" style="fill: none"/>
  </g>
  <g id="axes_1">
   <g id="patch_2">
    <path d="M 54 252 
L 388.8 252 
L 388.8 34.56 
L 54 34.56 
z
" style="fill: #ffffff"/>
   </g>
   <g id="patch_3">
    <path d="M 76.758126 252 
L 80.521222 252 
L 80.521222 250.056974 
L 76.758126 250.056974 
z
" clip-path="url(#pa5d31608bc)" style="fill: #ff7f0e; opacity: 0.85"/>
   </g>
   <g id="patch_4">
    <path d="M 80.521222 252 
L 84.284318 252 
L 84.284318 229.808593 
L 80.521222 229.808593 
z
" clip-path="url(#pa5d31608bc)" style="fill: #ff7f0e; opacity: 0.85"/>
   </g>
   <g id="patch_5">
    <path d="M 84.284318 252 
L 88.047414 252 
L 88.047414 136.032 
L 84.284318 136.032 
z
" clip-path="url(#pa5d31608bc)" style="fill: #ff7f0e; opacity: 0.85"/>
   </g>
   <g id="patch_6">
    <path d="M 88.047414 252 
L 91.81051 252 
L 91.81051 222.956868 
L 88.047414 222.956868 
z
" clip-path="url(#pa5d31608bc)" style="fill: #ff7f0e; opacity: 0.85"/>
   </g>
   <g id="patch_7">
    <path d="M 91.81051 252 
L 95.573606 252 
L 95.573606 243.614307 
L 91.81051 243.614307 
z
" clip-path="url(#pa5d31608bc)" style="fill: #ff7f0e; opacity: 0.85"/>
   </g>
   <g id="patch_8">
    <path d="M 95.573606 252 
L 99.336702 252 
L 99.336702 252 
L 95.573606 252 
z
" clip-path="url(#pa5d31608bc)" style="fill: #ff7f0e; opacity: 0.85"/>
   </g>
   <g id="patch_9">
    <path d="M 99.336702 252 
L 103.099798 252 
L 103.099798 252 
L 99.336702 252 
z
" clip-path="url(#pa5d31608bc)" style="fill: #ff7f0e; opacity: 0.85"/>
   </g>
   <g id="patch_10">
    <path d="M 103.099798 252 
L 106.862894 252 
L 106.862894 252 
L 103.099798 252 
z
" clip-path="url(#pa5d31608bc)" style="fill: #ff7f0e; opacity: 0.85"/>
   </g>
   <g id="patch_11">
    <path d="M 106.862894 252 
L 110.62599 252 
L 110.62599 252 
L 106.862894 252 
z
" clip-path="url(#pa5d31608bc)" style="fill: #ff7f0e; opacity: 0.85"/>
   </g>
   <g id="patch_12">
    <path d="M 110.62599 252 
L 114.389086 252 
L 114.389086 252 
L 110.62599 252 
z
" clip-path="url(#pa5d31608bc)" style="fill: #ff7f0e; opacity: 0.85"/>
   </g>
   <g id="patch_13">
    <path d="M 114.389086 252 
L 118.152182 252 
L 118.152182 252 
L 114.389086 252 
z
" clip-path="url(#pa5d31608bc)" style="fill: #ff7f0e; opacity: 0.85"/>
   </g>
   <g id="patch_14">
    <path d="M 118.152182 252 
L 121.915278 252 
L 121.915278 252 
L 118.152182 252 
z
" clip-path="url(#pa5d31608bc)" style="fill: #ff7f0e; opacity: 0.85"/>
   </g>
   <g id="patch_15">
    <path d="M 121.915278 252 
L 125.678374 252 
L 125.678374 242.591661 
L 121.915278 242.591661 
z
" clip-path="url(#pa5d31608bc)" style="fill: #ff7f0e; opacity: 0.85"/>
   </g>
   <g id="patch_16">
    <path d="M 125.678374 252 
L 129.44147 252 
L 129.44147 209.253418 
L 125.678374 209.253418 
z
" clip-path="url(#pa5d31608bc)" style="fill: #ff7f0e; opacity: 0.85"/>
   </g>
   <g id="patch_17">
    <path d="M 129.44147 252 
L 133.204566 252 
L 133.204566 228.990476 
L 129.44147 228.990476 
z
" clip-path="url(#pa5d31608bc)" style="fill: #ff7f0e; opacity: 0.85"/>
   </g>
   <g id="patch_18">
    <path d="M 133.204566 252 
L 136.967663 252 
L 136.967663 237.478434 
L 133.204566 237.478434 
z
" clip-path="url(#pa5d31608bc)" style="fill: #ff7f0e; opacity: 0.85"/>
   </g>
   <g id="patch_19">
    <path d="M 136.967663 252 
L 140.730759 252 
L 140.730759 248.318476 
L 136.967663 248.318476 
z
" clip-path="url(#pa5d31608bc)" style="fill: #ff7f0e; opacity: 0.85"/>
   </g>
   <g id="patch_20">
    <path d="M 140.730759 252 
L 144.493855 252 
L 144.493855 252 
L 140.730759 252 
z
" clip-path="url(#pa5d31608bc)" style="fill: #ff7f0e; opacity: 0.85"/>
   </g>
   <g id="patch_21">
    <path d="M 144.493855 252 
L 148.256951 252 
L 148.256951 252 
L 144.493855 252 
z
" clip-path="url(#pa5d31608bc)" style="fill: #ff7f0e; opacity: 0.85"/>
   </g>
   <g id="patch_22">
    <path d="M 148.256951 252 
L 152.020047 252 
L 152.020047 252 
L 148.256951 252 
z
" clip-path="url(#pa5d31608bc)" style="fill: #ff7f0e; opacity: 0.85"/>
   </g>
   <g id="patch_23">
    <path d="M 152.020047 252 
L 155.783143 252 
L 155.783143 252 
L 152.020047 252 
z
" clip-path="url(#pa5d31608bc)" style="fill: #ff7f0e; opacity: 0.85"/>
   </g>
   <g id="patch_24">
    <path d="M 155.783143 252 
L 159.546239 252 
L 159.546239 223.774984 
L 155.783143 223.774984 
z
" clip-path="url(#pa5d31608bc)" style="fill: #ff7f0e; opacity: 0.85"/>
   </g>
   <g id="patch_25">
    <path d="M 159.546239 252 
L 163.309335 252 
L 163.309335 83.365757 
L 159.546239 83.365757 
z
" clip-path="url(#pa5d31608bc)" style="fill: #ff7f0e; opacity: 0.85"/>
   </g>
   <g id="patch_26">
    <path d="M 163.309335 252 
L 167.072431 252 
L 167.072431 202.094899 
L 163.309335 202.094899 
z
" clip-path="url(#pa5d31608bc)" style="fill: #ff7f0e; opacity: 0.85"/>
   </g>
   <g id="patch_27">
    <path d="M 167.072431 252 
L 170.835527 252 
L 170.835527 231.54709 
L 167.072431 231.54709 
z
" clip-path="url(#pa5d31608bc)" style="fill: #ff7f0e; opacity: 0.85"/>
   </g>
   <g id="patch_28">
    <path d="M 170.835527 252 
L 174.598623 252 
L 174.598623 248.318476 
L 170.835527 248.318476 
z
" clip-path="url(#pa5d31608bc)" style="fill: #ff7f0e; opacity: 0.85"/>
   </g>
   <g id="patch_29">
    <path d="M 174.598623 252 
L 178.361719 252 
L 178.361719 252 
L 174.598623 252 
z
" clip-path="url(#pa5d31608bc)" style="fill: #ff7f0e; opacity: 0.85"/>
   </g>
   <g id="patch_30">
    <path d="M 178.361719 252 
L 182.124815 252 
L 182.124815 252 
L 178.361719 252 
z
" clip-path="url(#pa5d31608bc)" style="fill: #ff7f0e; opacity: 0.85"/>
   </g>
   <g id="patch_31">
    <path d="M 182.124815 252 
L 185.887911 252 
L 185.887911 231.956148 
L 182.124815 231.956148 
z
" clip-path="url(#pa5d31608bc)" style="fill: #ff7f0e; opacity: 0.85"/>
   </g>
   <g id="patch_32">
    <path d="M 185.887911 252 
L 189.651007 252 
L 189.651007 212.014561 
L 185.887911 212.014561 
z
" clip-path="url(#pa5d31608bc)" style="fill: #ff7f0e; opacity: 0.85"/>
   </g>
   <g id="patch_33">
    <path d="M 189.651007 252 
L 193.414103 252 
L 193.414103 180.210286 
L 189.651007 180.210286 
z
" clip-path="url(#pa5d31608bc)" style="fill: #ff7f0e; opacity: 0.85"/>
   </g>
   <g id="patch_34">
    <path d="M 193.414103 252 
L 197.177199 252 
L 197.177199 238.398815 
L 193.414103 238.398815 
z
" clip-path="url(#pa5d31608bc)" style="fill: #ff7f0e; opacity: 0.85"/>
   </g>
   <g id="patch_35">
    <path d="M 197.177199 252 
L 200.940295 252 
L 200.940295 248.318476 
L 197.177199 248.318476 
z
" clip-path="url(#pa5d31608bc)" style="fill: #ff7f0e; opacity: 0.85"/>
   </g>
   <g id="patch_36">
    <path d="M 200.940295 252 
L 204.703391 252 
L 204.703391 252 
L 200.940295 252 
z
" clip-path="url(#pa5d31608bc)" style="fill: #ff7f0e; opacity: 0.85"/>
   </g>
   <g id="patch_37">
    <path d="M 204.703391 252 
L 208.466487 252 
L 208.466487 252 
L 204.703391 252 
z
" clip-path="url(#pa5d31608bc)" style="fill: #ff7f0e; opacity: 0.85"/>
   </g>
   <g id="patch_38">
    <path d="M 208.466487 252 
L 212.229583 252 
L 212.229583 215.696085 
L 208.466487 215.696085 
z
" clip-path="url(#pa5d31608bc)" style="fill: #ff7f0e; opacity: 0.85"/>
   </g>
   <g id="patch_39">
    <path d="M 212.229583 252 
L 215.992679 252 
L 215.992679 78.866116 
L 212.229583 78.866116 
z
" clip-path="url(#pa5d31608bc)" style="fill: #ff7f0e; opacity: 0.85"/>
   </g>
   <g id="patch_40">
    <path d="M 215.992679 252 
L 219.755775 252 
L 219.755775 235.024085 
L 215.992679 235.024085 
z
" clip-path="url(#pa5d31608bc)" style="fill: #ff7f0e; opacity: 0.85"/>
   </g>
   <g id="patch_41">
    <path d="M 219.755775 252 
L 223.518871 252 
L 223.518871 231.956148 
L 219.755775 231.956148 
z
" clip-path="url(#pa5d31608bc)" style="fill: #ff7f0e; opacity: 0.85"/>
   </g>
   <g id="patch_42">
    <path d="M 223.518871 252 
L 227.281967 252 
L 227.281967 249.238857 
L 223.518871 249.238857 
z
" clip-path="url(#pa5d31608bc)" style="fill: #ff7f0e; opacity: 0.85"/>
   </g>
   <g id="patch_43">
    <path d="M 227.281967 252 
L 231.045063 252 
L 231.045063 242.489397 
L 227.281967 242.489397 
z
" clip-path="url(#pa5d31608bc)" style="fill: #ff7f0e; opacity: 0.85"/>
   </g>
   <g id="patch_44">
    <path d="M 231.045063 252 
L 234.808159 252 
L 234.808159 228.888212 
L 231.045063 228.888212 
z
" clip-path="url(#pa5d31608bc)" style="fill: #ff7f0e; opacity: 0.85"/>
   </g>
   <g id="patch_45">
    <path d="M 234.808159 252 
L 238.571255 252 
L 238.571255 205.46963 
L 234.808159 205.46963 
z
" clip-path="url(#pa5d31608bc)" style="fill: #ff7f0e; opacity: 0.85"/>
   </g>
   <g id="patch_46">
    <path d="M 238.571255 252 
L 242.334351 252 
L 242.334351 236.148995 
L 238.571255 236.148995 
z
" clip-path="url(#pa5d31608bc)" style="fill: #ff7f0e; opacity: 0.85"/>
   </g>
   <g id="patch_47">
    <path d="M 242.334351 252 
L 246.097447 252 
L 246.097447 240.54637 
L 242.334351 240.54637 
z
" clip-path="url(#pa5d31608bc)" style="fill: #ff7f0e; opacity: 0.85"/>
   </g>
   <g id="patch_48">
    <path d="M 246.097447 252 
L 249.860543 252 
L 249.860543 242.284868 
L 246.097447 242.284868 
z
" clip-path="url(#pa5d31608bc)" style="fill: #ff7f0e; opacity: 0.85"/>
   </g>
   <g id="patch_49">
    <path d="M 249.860543 252 
L 253.62364 252 
L 253.62364 219.888931 
L 249.860543 219.888931 
z
" clip-path="url(#pa5d31608bc)" style="fill: #ff7f0e; opacity: 0.85"/>
   </g>
   <g id="patch_50">
    <path d="M 253.62364 252 
L 257.386736 252 
L 257.386736 44.914286 
L 253.62364 44.914286 
z
" clip-path="url(#pa5d31608bc)" style="fill: #ff7f0e; opacity: 0.85"/>
   </g>
   <g id="patch_51">
    <path d="M 257.386736 252 
L 261.149832 252 
L 261.149832 166.81363 
L 257.386736 166.81363 
z
" clip-path="url(#pa5d31608bc)" style="fill: #ff7f0e; opacity: 0.85"/>
   </g>
   <g id="patch_52">
    <path d="M 261.149832 252 
L 264.912928 252 
L 264.912928 219.377608 
L 261.149832 219.377608 
z
" clip-path="url(#pa5d31608bc)" style="fill: #ff7f0e; opacity: 0.85"/>
   </g>
   <g id="patch_53">
    <path d="M 264.912928 252 
L 268.676024 252 
L 268.676024 238.29655 
L 264.912928 238.29655 
z
" clip-path="url(#pa5d31608bc)" style="fill: #ff7f0e; opacity: 0.85"/>
   </g>
   <g id="patch_54">
    <path d="M 268.676024 252 
L 272.43912 252 
L 272.43912 216.309672 
L 268.676024 216.309672 
z
" clip-path="url(#pa5d31608bc)" style="fill: #ff7f0e; opacity: 0.85"/>
   </g>
   <g id="patch_55">
    <path d="M 272.43912 252 
L 276.202216 252 
L 276.202216 209.662476 
L 272.43912 209.662476 
z
" clip-path="url(#pa5d31608bc)" style="fill: #ff7f0e; opacity: 0.85"/>
   </g>
   <g id="patch_56">
    <path d="M 276.202216 252 
L 279.965312 252 
L 279.965312 235.535407 
L 276.202216 235.535407 
z
" clip-path="url(#pa5d31608bc)" style="fill: #ff7f0e; opacity: 0.85"/>
   </g>
   <g id="patch_57">
    <path d="M 279.965312 252 
L 283.728408 252 
L 283.728408 246.989037 
L 279.965312 246.989037 
z
" clip-path="url(#pa5d31608bc)" style="fill: #ff7f0e; opacity: 0.85"/>
   </g>
   <g id="patch_58">
    <path d="M 283.728408 252 
L 287.491504 252 
L 287.491504 235.330878 
L 283.728408 235.330878 
z
" clip-path="url(#pa5d31608bc)" style="fill: #ff7f0e; opacity: 0.85"/>
   </g>
   <g id="patch_59">
    <path d="M 287.491504 252 
L 291.2546 252 
L 291.2546 205.571894 
L 287.491504 205.571894 
z
" clip-path="url(#pa5d31608bc)" style="fill: #ff7f0e; opacity: 0.85"/>
   </g>
   <g id="patch_60">
    <path d="M 291.2546 252 
L 295.017696 252 
L 295.017696 97.682794 
L 291.2546 97.682794 
z
" clip-path="url(#pa5d31608bc)" style="fill: #ff7f0e; opacity: 0.85"/>
   </g>
   <g id="patch_61">
    <path d="M 295.017696 252 
L 298.780792 252 
L 298.780792 221.320635 
L 295.017696 221.320635 
z
" clip-path="url(#pa5d31608bc)" style="fill: #ff7f0e; opacity: 0.85"/>
   </g>
   <g id="patch_62">
    <path d="M 298.780792 252 
L 302.543888 252 
L 302.543888 229.910857 
L 298.780792 229.910857 
z
" clip-path="url(#pa5d31608bc)" style="fill: #ff7f0e; opacity: 0.85"/>
   </g>
   <g id="patch_63">
    <path d="M 302.543888 252 
L 306.306984 252 
L 306.306984 228.683683 
L 302.543888 228.683683 
z
" clip-path="url(#pa5d31608bc)" style="fill: #ff7f0e; opacity: 0.85"/>
   </g>
   <g id="patch_64">
    <path d="M 306.306984 252 
L 310.07008 252 
L 310.07008 140.020317 
L 306.306984 140.020317 
z
" clip-path="url(#pa5d31608bc)" style="fill: #ff7f0e; opacity: 0.85"/>
   </g>
   <g id="patch_65">
    <path d="M 310.07008 252 
L 313.833176 252 
L 313.833176 208.537566 
L 310.07008 208.537566 
z
" clip-path="url(#pa5d31608bc)" style="fill: #ff7f0e; opacity: 0.85"/>
   </g>
   <g id="patch_66">
    <path d="M 313.833176 252 
L 317.596272 252 
L 317.596272 224.593101 
L 313.833176 224.593101 
z
" clip-path="url(#pa5d31608bc)" style="fill: #ff7f0e; opacity: 0.85"/>
   </g>
   <g id="patch_67">
    <path d="M 317.596272 252 
L 321.359368 252 
L 321.359368 228.888212 
L 317.596272 228.888212 
z
" clip-path="url(#pa5d31608bc)" style="fill: #ff7f0e; opacity: 0.85"/>
   </g>
   <g id="patch_68">
    <path d="M 321.359368 252 
L 325.122464 252 
L 325.122464 216.616466 
L 321.359368 216.616466 
z
" clip-path="url(#pa5d31608bc)" style="fill: #ff7f0e; opacity: 0.85"/>
   </g>
   <g id="patch_69">
    <path d="M 325.122464 252 
L 328.88556 252 
L 328.88556 175.403852 
L 325.122464 175.403852 
z
" clip-path="url(#pa5d31608bc)" style="fill: #ff7f0e; opacity: 0.85"/>
   </g>
   <g id="patch_70">
    <path d="M 328.88556 252 
L 332.648656 252 
L 332.648656 210.173799 
L 328.88556 210.173799 
z
" clip-path="url(#pa5d31608bc)" style="fill: #ff7f0e; opacity: 0.85"/>
   </g>
   <g id="patch_71">
    <path d="M 332.648656 252 
L 336.411752 252 
L 336.411752 228.17236 
L 332.648656 228.17236 
z
" clip-path="url(#pa5d31608bc)" style="fill: #ff7f0e; opacity: 0.85"/>
   </g>
   <g id="patch_72">
    <path d="M 336.411752 252 
L 340.174848 252 
L 340.174848 220.707048 
L 336.411752 220.707048 
z
" clip-path="url(#pa5d31608bc)" style="fill: #ff7f0e; opacity: 0.85"/>
   </g>
   <g id="patch_73">
    <path d="M 340.174848 252 
L 343.937944 252 
L 343.937944 160.370963 
L 340.174848 160.370963 
z
" clip-path="url(#pa5d31608bc)" style="fill: #ff7f0e; opacity: 0.85"/>
   </g>
   <g id="patch_74">
    <path d="M 343.937944 252 
L 347.70104 252 
L 347.70104 233.387852 
L 343.937944 233.387852 
z
" clip-path="url(#pa5d31608bc)" style="fill: #ff7f0e; opacity: 0.85"/>
   </g>
   <g id="patch_75">
    <path d="M 347.70104 252 
L 351.464136 252 
L 351.464136 222.54781 
L 347.70104 222.54781 
z
" clip-path="url(#pa5d31608bc)" style="fill: #ff7f0e; opacity: 0.85"/>
   </g>
   <g id="patch_76">
    <path d="M 351.464136 252 
L 355.227232 252 
L 355.227232 85.411048 
L 351.464136 85.411048 
z
" clip-path="url(#pa5d31608bc)" style="fill: #ff7f0e; opacity: 0.85"/>
   </g>
   <g id="patch_77">
    <path d="M 355.227232 252 
L 358.990328 252 
L 358.990328 97.376 
L 355.227232 97.376 
z
" clip-path="url(#pa5d31608bc)" style="fill: #ff7f0e; opacity: 0.85"/>
   </g>
   <g id="patch_78">
    <path d="M 358.990328 252 
L 362.753424 252 
L 362.753424 202.197164 
L 358.990328 202.197164 
z
" clip-path="url(#pa5d31608bc)" style="fill: #ff7f0e; opacity: 0.85"/>
   </g>
   <g id="patch_79">
    <path d="M 362.753424 252 
L 366.51652 252 
L 366.51652 213.957587 
L 362.753424 213.957587 
z
" clip-path="url(#pa5d31608bc)" style="fill: #ff7f0e; opacity: 0.85"/>
   </g>
   <g id="patch_80">
    <path d="M 366.51652 252 
L 370.279617 252 
L 370.279617 224.899894 
L 366.51652 224.899894 
z
" clip-path="url(#pa5d31608bc)" style="fill: #ff7f0e; opacity: 0.85"/>
   </g>
   <g id="patch_81">
    <path d="M 370.279617 252 
L 374.042713 252 
L 374.042713 228.274624 
L 370.279617 228.274624 
z
" clip-path="url(#pa5d31608bc)" style="fill: #ff7f0e; opacity: 0.85"/>
   </g>
   <g id="patch_82">
    <path d="M 374.042713 252 
L 377.805809 252 
L 377.805809 244.227894 
L 374.042713 244.227894 
z
" clip-path="url(#pa5d31608bc)" style="fill: #ff7f0e; opacity: 0.85"/>
   </g>
   <g id="patch_83">
    <path d="M 377.805809 252 
L 381.568905 252 
L 381.568905 201.174519 
L 377.805809 201.174519 
z
" clip-path="url(#pa5d31608bc)" style="fill: #ff7f0e; opacity: 0.85"/>
   </g>
   <g id="patch_84">
    <path d="M 381.568905 252 
L 385.332001 252 
L 385.332001 130.611979 
L 381.568905 130.611979 
z
" clip-path="url(#pa5d31608bc)" style="fill: #ff7f0e; opacity: 0.85"/>
   </g>
   <g id="patch_85">
    <path d="M 385.332001 252 
L 389.095097 252 
L 389.095097 211.503238 
L 385.332001 211.503238 
z
" clip-path="url(#pa5d31608bc)" style="fill: #ff7f0e; opacity: 0.85"/>
   </g>
   <g id="patch_86">
    <path d="M 389.095097 252 
L 392.858193 252 
L 392.858193 218.354963 
L 389.095097 218.354963 
z
" clip-path="url(#pa5d31608bc)" style="fill: #ff7f0e; opacity: 0.85"/>
   </g>
   <g id="patch_87">
    <path d="M 392.858193 252 
L 396.621289 252 
L 396.621289 196.368085 
L 392.858193 196.368085 
z
" clip-path="url(#pa5d31608bc)" style="fill: #ff7f0e; opacity: 0.85"/>
   </g>
   <g id="patch_88">
    <path d="M 396.621289 252 
L 400.384385 252 
L 400.384385 204.34472 
L 396.621289 204.34472 
z
" clip-path="url(#pa5d31608bc)" style="fill: #ff7f0e; opacity: 0.85"/>
   </g>
   <g id="patch_89">
    <path d="M 400.384385 252 
L 404.147481 252 
L 404.147481 212.014561 
L 400.384385 212.014561 
z
" clip-path="url(#pa5d31608bc)" style="fill: #ff7f0e; opacity: 0.85"/>
   </g>
   <g id="patch_90">
    <path d="M 404.147481 252 
L 407.910577 252 
L 407.910577 200.049608 
L 404.147481 200.049608 
z
" clip-path="url(#pa5d31608bc)" style="fill: #ff7f0e; opacity: 0.85"/>
   </g>
   <g id="patch_91">
    <path d="M 407.910577 252 
L 411.673673 252 
L 411.673673 137.668233 
L 407.910577 137.668233 
z
" clip-path="url(#pa5d31608bc)" style="fill: #ff7f0e; opacity: 0.85"/>
   </g>
   <g id="patch_92">
    <path d="M 411.673673 252 
L 415.436769 252 
L 415.436769 203.935661 
L 411.673673 203.935661 
z
" clip-path="url(#pa5d31608bc)" style="fill: #ff7f0e; opacity: 0.85"/>
   </g>
   <g id="patch_93">
    <path d="M 415.436769 252 
L 419.199865 252 
L 419.199865 225.206688 
L 415.436769 225.206688 
z
" clip-path="url(#pa5d31608bc)" style="fill: #ff7f0e; opacity: 0.85"/>
   </g>
   <g id="patch_94">
    <path d="M 419.199865 252 
L 422.962961 252 
L 422.962961 168.756656 
L 419.199865 168.756656 
z
" clip-path="url(#pa5d31608bc)" style="fill: #ff7f0e; opacity: 0.85"/>
   </g>
   <g id="patch_95">
    <path d="M 422.962961 252 
L 426.726057 252 
L 426.726057 217.639111 
L 422.962961 217.639111 
z
" clip-path="url(#pa5d31608bc)" style="fill: #ff7f0e; opacity: 0.85"/>
   </g>
   <g id="patch_96">
    <path d="M 426.726057 252 
L 430.489153 252 
L 430.489153 221.013841 
L 426.726057 221.013841 
z
" clip-path="url(#pa5d31608bc)" style="fill: #ff7f0e; opacity: 0.85"/>
   </g>
   <g id="patch_97">
    <path d="M 430.489153 252 
L 434.252249 252 
L 434.252249 98.398646 
L 430.489153 98.398646 
z
" clip-path="url(#pa5d31608bc)" style="fill: #ff7f0e; opacity: 0.85"/>
   </g>
   <g id="patch_98">
    <path d="M 434.252249 252 
L 438.015345 252 
L 438.015345 159.450582 
L 434.252249 159.450582 
z
" clip-path="url(#pa5d31608bc)" style="fill: #ff7f0e; opacity: 0.85"/>
   </g>
   <g id="patch_99">
    <path d="M 438.015345 252 
L 441.778441 252 
L 441.778441 209.764741 
L 438.015345 209.764741 
z
" clip-path="url(#pa5d31608bc)" style="fill: #ff7f0e; opacity: 0.85"/>
   </g>
   <g id="patch_100">
    <path d="M 441.778441 252 
L 445.541537 252 
L 445.541537 174.483471 
L 441.778441 174.483471 
z
" clip-path="url(#pa5d31608bc)" style="fill: #ff7f0e; opacity: 0.85"/>
   </g>
   <g id="patch_101">
    <path d="M 445.541537 252 
L 449.304633 252 
L 449.304633 208.537566 
L 445.541537 208.537566 
z
" clip-path="url(#pa5d31608bc)" style="fill: #ff7f0e; opacity: 0.85"/>
   </g>
   <g id="patch_102">
    <path d="M 449.304633 252 
L 453.067729 252 
L 453.067729 219.173079 
L 449.304633 219.173079 
z
" clip-path="url(#pa5d31608bc)" style="fill: #ff7f0e; opacity: 0.85"/>
   </g>
   <g id="patch_103">
    <path d="M 453.067729 252 
L 456.830825 252 
L 456.830825 177.653672 
L 453.067729 177.653672 
z
" clip-path="url(#pa5d31608bc)" style="fill: #ff7f0e; opacity: 0.85"/>
   </g>
   <g id="patch_104">
    <path d="M 456.830825 252 
L 460.593921 252 
L 460.593921 179.494434 
L 456.830825 179.494434 
z
" clip-path="url(#pa5d31608bc)" style="fill: #ff7f0e; opacity: 0.85"/>
   </g>
   <g id="patch_105">
    <path d="M 460.593921 252 
L 464.357017 252 
L 464.357017 207.514921 
L 460.593921 207.514921 
z
" clip-path="url(#pa5d31608bc)" style="fill: #ff7f0e; opacity: 0.85"/>
   </g>
   <g id="patch_106">
    <path d="M 464.357017 252 
L 468.120113 252 
L 468.120113 180.517079 
L 464.357017 180.517079 
z
" clip-path="url(#pa5d31608bc)" style="fill: #ff7f0e; opacity: 0.85"/>
   </g>
   <g id="patch_107">
    <path d="M 468.120113 252 
L 471.883209 252 
L 471.883209 230.524444 
L 468.120113 230.524444 
z
" clip-path="url(#pa5d31608bc)" style="fill: #ff7f0e; opacity: 0.85"/>
   </g>
   <g id="patch_108">
    <path d="M 471.883209 252 
L 475.646305 252 
L 475.646305 229.092741 
L 471.883209 229.092741 
z
" clip-path="url(#pa5d31608bc)" style="fill: #ff7f0e; opacity: 0.85"/>
   </g>
   <g id="patch_109">
    <path d="M 475.646305 252 
L 479.409401 252 
L 479.409401 152.394328 
L 475.646305 152.394328 
z
" clip-path="url(#pa5d31608bc)" style="fill: #ff7f0e; opacity: 0.85"/>
   </g>
   <g id="patch_110">
    <path d="M 479.409401 252 
L 483.172497 252 
L 483.172497 206.799069 
L 479.409401 206.799069 
z
" clip-path="url(#pa5d31608bc)" style="fill: #ff7f0e; opacity: 0.85"/>
   </g>
   <g id="patch_111">
    <path d="M 483.172497 252 
L 486.935594 252 
L 486.935594 210.480593 
L 483.172497 210.480593 
z
" clip-path="url(#pa5d31608bc)" style="fill: #ff7f0e; opacity: 0.85"/>
   </g>
   <g id="patch_112">
    <path d="M 486.935594 252 
L 490.69869 252 
L 490.69869 206.59454 
L 486.935594 206.59454 
z
" clip-path="url(#pa5d31608bc)" style="fill: #ff7f0e; opacity: 0.85"/>
   </g>
   <g id="patch_113">
    <path d="M 490.69869 252 
L 494.461786 252 
L 494.461786 206.083217 
L 490.69869 206.083217 
z
" clip-path="url(#pa5d31608bc)" style="fill: #ff7f0e; opacity: 0.85"/>
   </g>
   <g id="patch_114">
    <path d="M 494.461786 252 
L 498.224882 252 
L 498.224882 209.355683 
L 494.461786 209.355683 
z
" clip-path="url(#pa5d31608bc)" style="fill: #ff7f0e; opacity: 0.85"/>
   </g>
   <g id="patch_115">
    <path d="M 498.224882 252 
L 501.987978 252 
L 501.987978 115.476825 
L 498.224882 115.476825 
z
" clip-path="url(#pa5d31608bc)" style="fill: #ff7f0e; opacity: 0.85"/>
   </g>
   <g id="patch_116">
    <path d="M 501.987978 252 
L 505.751074 252 
L 505.751074 202.503958 
L 501.987978 202.503958 
z
" clip-path="url(#pa5d31608bc)" style="fill: #ff7f0e; opacity: 0.85"/>
   </g>
   <g id="patch_117">
    <path d="M 505.751074 252 
L 509.51417 252 
L 509.51417 206.59454 
L 505.751074 206.59454 
z
" clip-path="url(#pa5d31608bc)" style="fill: #ff7f0e; opacity: 0.85"/>
   </g>
   <g id="patch_118">
    <path d="M 509.51417 252 
L 513.277266 252 
L 513.277266 216.105143 
L 509.51417 216.105143 
z
" clip-path="url(#pa5d31608bc)" style="fill: #ff7f0e; opacity: 0.85"/>
   </g>
   <g id="patch_119">
    <path d="M 513.277266 252 
L 517.040362 252 
L 517.040362 207.003598 
L 513.277266 207.003598 
z
" clip-path="url(#pa5d31608bc)" style="fill: #ff7f0e; opacity: 0.85"/>
   </g>
   <g id="patch_120">
    <path d="M 517.040362 252 
L 520.803458 252 
L 520.803458 123.248931 
L 517.040362 123.248931 
z
" clip-path="url(#pa5d31608bc)" style="fill: #ff7f0e; opacity: 0.85"/>
   </g>
   <g id="patch_121">
    <path d="M 520.803458 252 
L 524.566554 252 
L 524.566554 205.265101 
L 520.803458 205.265101 
z
" clip-path="url(#pa5d31608bc)" style="fill: #ff7f0e; opacity: 0.85"/>
   </g>
   <g id="patch_122">
    <path d="M 524.566554 252 
L 528.32965 252 
L 528.32965 210.582857 
L 524.566554 210.582857 
z
" clip-path="url(#pa5d31608bc)" style="fill: #ff7f0e; opacity: 0.85"/>
   </g>
   <g id="patch_123">
    <path d="M 528.32965 252 
L 532.092746 252 
L 532.092746 170.495153 
L 528.32965 170.495153 
z
" clip-path="url(#pa5d31608bc)" style="fill: #ff7f0e; opacity: 0.85"/>
   </g>
   <g id="patch_124">
    <path d="M 532.092746 252 
L 535.855842 252 
L 535.855842 204.14019 
L 532.092746 204.14019 
z
" clip-path="url(#pa5d31608bc)" style="fill: #ff7f0e; opacity: 0.85"/>
   </g>
   <g id="patch_125">
    <path d="M 535.855842 252 
L 539.618938 252 
L 539.618938 193.300148 
L 535.855842 193.300148 
z
" clip-path="url(#pa5d31608bc)" style="fill: #ff7f0e; opacity: 0.85"/>
   </g>
   <g id="patch_126">
    <path d="M 539.618938 252 
L 543.382034 252 
L 543.382034 202.606222 
L 539.618938 202.606222 
z
" clip-path="url(#pa5d31608bc)" style="fill: #ff7f0e; opacity: 0.85"/>
   </g>
   <g id="patch_127">
    <path d="M 543.382034 252 
L 547.14513 252 
L 547.14513 221.729693 
L 543.382034 221.729693 
z
" clip-path="url(#pa5d31608bc)" style="fill: #ff7f0e; opacity: 0.85"/>
   </g>
   <g id="patch_128">
    <path d="M 547.14513 252 
L 550.908226 252 
L 550.908226 232.365206 
L 547.14513 232.365206 
z
" clip-path="url(#pa5d31608bc)" style="fill: #ff7f0e; opacity: 0.85"/>
   </g>
   <g id="patch_129">
    <path d="M 550.908226 252 
L 554.671322 252 
L 554.671322 227.04745 
L 550.908226 227.04745 
z
" clip-path="url(#pa5d31608bc)" style="fill: #ff7f0e; opacity: 0.85"/>
   </g>
   <g id="patch_130">
    <path d="M 554.671322 252 
L 558.434418 252 
L 558.434418 166.915894 
L 554.671322 166.915894 
z
" clip-path="url(#pa5d31608bc)" style="fill: #ff7f0e; opacity: 0.85"/>
   </g>
   <g id="patch_131">
    <path d="M 558.434418 252 
L 562.197514 252 
L 562.197514 183.789545 
L 558.434418 183.789545 
z
" clip-path="url(#pa5d31608bc)" style="fill: #ff7f0e; opacity: 0.85"/>
   </g>
   <g id="patch_132">
    <path d="M 562.197514 252 
L 565.96061 252 
L 565.96061 226.331598 
L 562.197514 226.331598 
z
" clip-path="url(#pa5d31608bc)" style="fill: #ff7f0e; opacity: 0.85"/>
   </g>
   <g id="patch_133">
    <path d="M 565.96061 252 
L 569.723706 252 
L 569.723706 216.616466 
L 565.96061 216.616466 
z
" clip-path="url(#pa5d31608bc)" style="fill: #ff7f0e; opacity: 0.85"/>
   </g>
   <g id="patch_134">
    <path d="M 569.723706 252 
L 573.486802 252 
L 573.486802 218.559492 
L 569.723706 218.559492 
z
" clip-path="url(#pa5d31608bc)" style="fill: #ff7f0e; opacity: 0.85"/>
   </g>
   <g id="patch_135">
    <path d="M 573.486802 252 
L 577.249898 252 
L 577.249898 163.643429 
L 573.486802 163.643429 
z
" clip-path="url(#pa5d31608bc)" style="fill: #ff7f0e; opacity: 0.85"/>
   </g>
   <g id="patch_136">
    <path d="M 577.249898 252 
L 581.012994 252 
L 581.012994 192.482032 
L 577.249898 192.482032 
z
" clip-path="url(#pa5d31608bc)" style="fill: #ff7f0e; opacity: 0.85"/>
   </g>
   <g id="patch_137">
    <path d="M 581.012994 252 
L 584.77609 252 
L 584.77609 204.14019 
L 581.012994 204.14019 
z
" clip-path="url(#pa5d31608bc)" style="fill: #ff7f0e; opacity: 0.85"/>
   </g>
   <g id="patch_138">
    <path d="M 584.77609 252 
L 588.539186 252 
L 588.539186 208.435302 
L 584.77609 208.435302 
z
" clip-path="url(#pa5d31608bc)" style="fill: #ff7f0e; opacity: 0.85"/>
   </g>
   <g id="patch_139">
    <path d="M 588.539186 252 
L 592.302282 252 
L 592.302282 224.388571 
L 588.539186 224.388571 
z
" clip-path="url(#pa5d31608bc)" style="fill: #ff7f0e; opacity: 0.85"/>
   </g>
   <g id="patch_140">
    <path d="M 592.302282 252 
L 596.065378 252 
L 596.065378 202.606222 
L 592.302282 202.606222 
z
" clip-path="url(#pa5d31608bc)" style="fill: #ff7f0e; opacity: 0.85"/>
   </g>
   <g id="patch_141">
    <path d="M 596.065378 252 
L 599.828474 252 
L 599.828474 216.71873 
L 596.065378 216.71873 
z
" clip-path="url(#pa5d31608bc)" style="fill: #ff7f0e; opacity: 0.85"/>
   </g>
   <g id="patch_142">
    <path d="M 599.828474 252 
L 603.591571 252 
L 603.591571 201.992635 
L 599.828474 201.992635 
z
" clip-path="url(#pa5d31608bc)" style="fill: #ff7f0e; opacity: 0.85"/>
   </g>
   <g id="patch_143">
    <path d="M 603.591571 252 
L 607.354667 252 
L 607.354667 226.638392 
L 603.591571 226.638392 
z
" clip-path="url(#pa5d31608bc)" style="fill: #ff7f0e; opacity: 0.85"/>
   </g>
   <g id="patch_144">
    <path d="M 607.354667 252 
L 611.117763 252 
L 611.117763 178.164995 
L 607.354667 178.164995 
z
" clip-path="url(#pa5d31608bc)" style="fill: #ff7f0e; opacity: 0.85"/>
   </g>
   <g id="patch_145">
    <path d="M 611.117763 252 
L 614.880859 252 
L 614.880859 194.629587 
L 611.117763 194.629587 
z
" clip-path="url(#pa5d31608bc)" style="fill: #ff7f0e; opacity: 0.85"/>
   </g>
   <g id="patch_146">
    <path d="M 614.880859 252 
L 618.643955 252 
L 618.643955 226.638392 
L 614.880859 226.638392 
z
" clip-path="url(#pa5d31608bc)" style="fill: #ff7f0e; opacity: 0.85"/>
   </g>
   <g id="patch_147">
    <path d="M 618.643955 252 
L 622.407051 252 
L 622.407051 218.354963 
L 618.643955 218.354963 
z
" clip-path="url(#pa5d31608bc)" style="fill: #ff7f0e; opacity: 0.85"/>
   </g>
   <g id="patch_148">
    <path d="M 622.407051 252 
L 626.170147 252 
L 626.170147 222.036487 
L 622.407051 222.036487 
z
" clip-path="url(#pa5d31608bc)" style="fill: #ff7f0e; opacity: 0.85"/>
   </g>
   <g id="patch_149">
    <path d="M 626.170147 252 
L 629.933243 252 
L 629.933243 201.788106 
L 626.170147 201.788106 
z
" clip-path="url(#pa5d31608bc)" style="fill: #ff7f0e; opacity: 0.85"/>
   </g>
   <g id="patch_150">
    <path d="M 629.933243 252 
L 633.696339 252 
L 633.696339 223.161397 
L 629.933243 223.161397 
z
" clip-path="url(#pa5d31608bc)" style="fill: #ff7f0e; opacity: 0.85"/>
   </g>
   <g id="patch_151">
    <path d="M 633.696339 252 
L 637.459435 252 
L 637.459435 220.809312 
L 633.696339 220.809312 
z
" clip-path="url(#pa5d31608bc)" style="fill: #ff7f0e; opacity: 0.85"/>
   </g>
   <g id="patch_152">
    <path d="M 637.459435 252 
L 641.222531 252 
L 641.222531 224.79763 
L 637.459435 224.79763 
z
" clip-path="url(#pa5d31608bc)" style="fill: #ff7f0e; opacity: 0.85"/>
   </g>
   <g id="patch_153">
    <path d="M 641.222531 252 
L 644.985627 252 
L 644.985627 223.161397 
L 641.222531 223.161397 
z
" clip-path="url(#pa5d31608bc)" style="fill: #ff7f0e; opacity: 0.85"/>
   </g>
   <g id="patch_154">
    <path d="M 644.985627 252 
L 648.748723 252 
L 648.748723 232.569735 
L 644.985627 232.569735 
z
" clip-path="url(#pa5d31608bc)" style="fill: #ff7f0e; opacity: 0.85"/>
   </g>
   <g id="patch_155">
    <path d="M 648.748723 252 
L 652.511819 252 
L 652.511819 220.09346 
L 648.748723 220.09346 
z
" clip-path="url(#pa5d31608bc)" style="fill: #ff7f0e; opacity: 0.85"/>
   </g>
   <g id="patch_156">
    <path d="M 652.511819 252 
L 656.274915 252 
L 656.274915 240.341841 
L 652.511819 240.341841 
z
" clip-path="url(#pa5d31608bc)" style="fill: #ff7f0e; opacity: 0.85"/>
   </g>
   <g id="patch_157">
    <path d="M 656.274915 252 
L 660.038011 252 
L 660.038011 214.571175 
L 656.274915 214.571175 
z
" clip-path="url(#pa5d31608bc)" style="fill: #ff7f0e; opacity: 0.85"/>
   </g>
   <g id="patch_158">
    <path d="M 660.038011 252 
L 663.801107 252 
L 663.801107 204.446984 
L 660.038011 204.446984 
z
" clip-path="url(#pa5d31608bc)" style="fill: #ff7f0e; opacity: 0.85"/>
   </g>
   <g id="patch_159">
    <path d="M 663.801107 252 
L 667.564203 252 
L 667.564203 231.649354 
L 663.801107 231.649354 
z
" clip-path="url(#pa5d31608bc)" style="fill: #ff7f0e; opacity: 0.85"/>
   </g>
   <g id="patch_160">
    <path d="M 667.564203 252 
L 671.327299 252 
L 671.327299 229.501799 
L 667.564203 229.501799 
z
" clip-path="url(#pa5d31608bc)" style="fill: #ff7f0e; opacity: 0.85"/>
   </g>
   <g id="patch_161">
    <path d="M 671.327299 252 
L 675.090395 252 
L 675.090395 217.741376 
L 671.327299 217.741376 
z
" clip-path="url(#pa5d31608bc)" style="fill: #ff7f0e; opacity: 0.85"/>
   </g>
   <g id="patch_162">
    <path d="M 675.090395 252 
L 678.853491 252 
L 678.853491 216.207407 
L 675.090395 216.207407 
z
" clip-path="url(#pa5d31608bc)" style="fill: #ff7f0e; opacity: 0.85"/>
   </g>
   <g id="patch_163">
    <path d="M 678.853491 252 
L 682.616587 252 
L 682.616587 229.808593 
L 678.853491 229.808593 
z
" clip-path="url(#pa5d31608bc)" style="fill: #ff7f0e; opacity: 0.85"/>
   </g>
   <g id="patch_164">
    <path d="M 682.616587 252 
L 686.379683 252 
L 686.379683 236.864847 
L 682.616587 236.864847 
z
" clip-path="url(#pa5d31608bc)" style="fill: #ff7f0e; opacity: 0.85"/>
   </g>
   <g id="patch_165">
    <path d="M 686.379683 252 
L 690.142779 252 
L 690.142779 226.638392 
L 686.379683 226.638392 
z
" clip-path="url(#pa5d31608bc)" style="fill: #ff7f0e; opacity: 0.85"/>
   </g>
   <g id="patch_166">
    <path d="M 690.142779 252 
L 693.905875 252 
L 693.905875 227.04745 
L 690.142779 227.04745 
z
" clip-path="url(#pa5d31608bc)" style="fill: #ff7f0e; opacity: 0.85"/>
   </g>
   <g id="patch_167">
    <path d="M 693.905875 252 
L 697.668971 252 
L 697.668971 237.069376 
L 693.905875 237.069376 
z
" clip-path="url(#pa5d31608bc)" style="fill: #ff7f0e; opacity: 0.85"/>
   </g>
   <g id="patch_168">
    <path d="M 697.668971 252 
L 701.432067 252 
L 701.432067 231.035767 
L 697.668971 231.035767 
z
" clip-path="url(#pa5d31608bc)" style="fill: #ff7f0e; opacity: 0.85"/>
   </g>
   <g id="patch_169">
    <path d="M 701.432067 252 
L 705.195163 252 
L 705.195163 230.831238 
L 701.432067 230.831238 
z
" clip-path="url(#pa5d31608bc)" style="fill: #ff7f0e; opacity: 0.85"/>
   </g>
   <g id="patch_170">
    <path d="M 705.195163 252 
L 708.958259 252 
L 708.958259 218.866286 
L 705.195163 218.866286 
z
" clip-path="url(#pa5d31608bc)" style="fill: #ff7f0e; opacity: 0.85"/>
   </g>
   <g id="patch_171">
    <path d="M 708.958259 252 
L 712.721355 252 
L 712.721355 239.523725 
L 708.958259 239.523725 
z
" clip-path="url(#pa5d31608bc)" style="fill: #ff7f0e; opacity: 0.85"/>
   </g>
   <g id="patch_172">
    <path d="M 712.721355 252 
L 716.484451 252 
L 716.484451 237.887492 
L 712.721355 237.887492 
z
" clip-path="url(#pa5d31608bc)" style="fill: #ff7f0e; opacity: 0.85"/>
   </g>
   <g id="patch_173">
    <path d="M 716.484451 252 
L 720.247548 252 
L 720.247548 239.932783 
L 716.484451 239.932783 
z
" clip-path="url(#pa5d31608bc)" style="fill: #ff7f0e; opacity: 0.85"/>
   </g>
   <g id="patch_174">
    <path d="M 720.247548 252 
L 724.010644 252 
L 724.010644 239.114667 
L 720.247548 239.114667 
z
" clip-path="url(#pa5d31608bc)" style="fill: #ff7f0e; opacity: 0.85"/>
   </g>
   <g id="patch_175">
    <path d="M 724.010644 252 
L 727.77374 252 
L 727.77374 237.785228 
L 724.010644 237.785228 
z
" clip-path="url(#pa5d31608bc)" style="fill: #ff7f0e; opacity: 0.85"/>
   </g>
   <g id="patch_176">
    <path d="M 727.77374 252 
L 731.536836 252 
L 731.536836 243.716571 
L 727.77374 243.716571 
z
" clip-path="url(#pa5d31608bc)" style="fill: #ff7f0e; opacity: 0.85"/>
   </g>
   <g id="patch_177">
    <path d="M 731.536836 252 
L 735.299932 252 
L 735.299932 233.285587 
L 731.536836 233.285587 
z
" clip-path="url(#pa5d31608bc)" style="fill: #ff7f0e; opacity: 0.85"/>
   </g>
   <g id="patch_178">
    <path d="M 735.299932 252 
L 739.063028 252 
L 739.063028 241.262222 
L 735.299932 241.262222 
z
" clip-path="url(#pa5d31608bc)" style="fill: #ff7f0e; opacity: 0.85"/>
   </g>
   <g id="patch_179">
    <path d="M 739.063028 252 
L 742.826124 252 
L 742.826124 242.284868 
L 739.063028 242.284868 
z
" clip-path="url(#pa5d31608bc)" style="fill: #ff7f0e; opacity: 0.85"/>
   </g>
   <g id="patch_180">
    <path d="M 742.826124 252 
L 746.58922 252 
L 746.58922 239.625989 
L 742.826124 239.625989 
z
" clip-path="url(#pa5d31608bc)" style="fill: #ff7f0e; opacity: 0.85"/>
   </g>
   <g id="patch_181">
    <path d="M 746.58922 252 
L 750.352316 252 
L 750.352316 232.365206 
L 746.58922 232.365206 
z
" clip-path="url(#pa5d31608bc)" style="fill: #ff7f0e; opacity: 0.85"/>
   </g>
   <g id="patch_182">
    <path d="M 750.352316 252 
L 754.115412 252 
L 754.115412 243.00072 
L 750.352316 243.00072 
z
" clip-path="url(#pa5d31608bc)" style="fill: #ff7f0e; opacity: 0.85"/>
   </g>
   <g id="patch_183">
    <path d="M 754.115412 252 
L 757.878508 252 
L 757.878508 246.579979 
L 754.115412 246.579979 
z
" clip-path="url(#pa5d31608bc)" style="fill: #ff7f0e; opacity: 0.85"/>
   </g>
   <g id="patch_184">
    <path d="M 757.878508 252 
L 761.641604 252 
L 761.641604 246.37545 
L 757.878508 246.37545 
z
" clip-path="url(#pa5d31608bc)" style="fill: #ff7f0e; opacity: 0.85"/>
   </g>
   <g id="patch_185">
    <path d="M 761.641604 252 
L 765.4047 252 
L 765.4047 231.035767 
L 761.641604 231.035767 
z
" clip-path="url(#pa5d31608bc)" style="fill: #ff7f0e; opacity: 0.85"/>
   </g>
   <g id="patch_186">
    <path d="M 765.4047 252 
L 769.167796 252 
L 769.167796 239.216931 
L 765.4047 239.216931 
z
" clip-path="url(#pa5d31608bc)" style="fill: #ff7f0e; opacity: 0.85"/>
   </g>
   <g id="patch_187">
    <path d="M 769.167796 252 
L 772.930892 252 
L 772.930892 245.966392 
L 769.167796 245.966392 
z
" clip-path="url(#pa5d31608bc)" style="fill: #ff7f0e; opacity: 0.85"/>
   </g>
   <g id="patch_188">
    <path d="M 772.930892 252 
L 776.693988 252 
L 776.693988 241.773545 
L 772.930892 241.773545 
z
" clip-path="url(#pa5d31608bc)" style="fill: #ff7f0e; opacity: 0.85"/>
   </g>
   <g id="patch_189">
    <path d="M 776.693988 252 
L 780.457084 252 
L 780.457084 246.170921 
L 776.693988 246.170921 
z
" clip-path="url(#pa5d31608bc)" style="fill: #ff7f0e; opacity: 0.85"/>
   </g>
   <g id="patch_190">
    <path d="M 780.457084 252 
L 784.22018 252 
L 784.22018 244.330159 
L 780.457084 244.330159 
z
" clip-path="url(#pa5d31608bc)" style="fill: #ff7f0e; opacity: 0.85"/>
   </g>
   <g id="patch_191">
    <path d="M 784.22018 252 
L 787.983276 252 
L 787.983276 245.966392 
L 784.22018 245.966392 
z
" clip-path="url(#pa5d31608bc)" style="fill: #ff7f0e; opacity: 0.85"/>
   </g>
   <g id="patch_192">
    <path d="M 787.983276 252 
L 791.746372 252 
L 791.746372 241.773545 
L 787.983276 241.773545 
z
" clip-path="url(#pa5d31608bc)" style="fill: #ff7f0e; opacity: 0.85"/>
   </g>
   <g id="patch_193">
    <path d="M 791.746372 252 
L 795.509468 252 
L 795.509468 248.113947 
L 791.746372 248.113947 
z
" clip-path="url(#pa5d31608bc)" style="fill: #ff7f0e; opacity: 0.85"/>
   </g>
   <g id="patch_194">
    <path d="M 795.509468 252 
L 799.272564 252 
L 799.272564 248.113947 
L 795.509468 248.113947 
z
" clip-path="url(#pa5d31608bc)" style="fill: #ff7f0e; opacity: 0.85"/>
   </g>
   <g id="patch_195">
    <path d="M 799.272564 252 
L 803.03566 252 
L 803.03566 245.761862 
L 799.272564 245.761862 
z
" clip-path="url(#pa5d31608bc)" style="fill: #ff7f0e; opacity: 0.85"/>
   </g>
   <g id="patch_196">
    <path d="M 803.03566 252 
L 806.798756 252 
L 806.798756 247.398095 
L 803.03566 247.398095 
z
" clip-path="url(#pa5d31608bc)" style="fill: #ff7f0e; opacity: 0.85"/>
   </g>
   <g id="patch_197">
    <path d="M 806.798756 252 
L 810.561852 252 
L 810.561852 246.579979 
L 806.798756 246.579979 
z
" clip-path="url(#pa5d31608bc)" style="fill: #ff7f0e; opacity: 0.85"/>
   </g>
   <g id="patch_198">
    <path d="M 810.561852 252 
L 814.324948 252 
L 814.324948 248.932063 
L 810.561852 248.932063 
z
" clip-path="url(#pa5d31608bc)" style="fill: #ff7f0e; opacity: 0.85"/>
   </g>
   <g id="patch_199">
    <path d="M 814.324948 252 
L 818.088044 252 
L 818.088044 249.647915 
L 814.324948 249.647915 
z
" clip-path="url(#pa5d31608bc)" style="fill: #ff7f0e; opacity: 0.85"/>
   </g>
   <g id="patch_200">
    <path d="M 818.088044 252 
L 821.85114 252 
L 821.85114 247.193566 
L 818.088044 247.193566 
z
" clip-path="url(#pa5d31608bc)" style="fill: #ff7f0e; opacity: 0.85"/>
   </g>
   <g id="patch_201">
    <path d="M 821.85114 252 
L 825.614236 252 
L 825.614236 249.647915 
L 821.85114 249.647915 
z
" clip-path="url(#pa5d31608bc)" style="fill: #ff7f0e; opacity: 0.85"/>
   </g>
   <g id="patch_202">
    <path d="M 825.614236 252 
L 829.377332 252 
L 829.377332 247.602624 
L 825.614236 247.602624 
z
" clip-path="url(#pa5d31608bc)" style="fill: #ff7f0e; opacity: 0.85"/>
   </g>
   <g id="patch_203">
    <path d="M 829.377332 252 
L 833.140429 252 
L 833.140429 249.136593 
L 829.377332 249.136593 
z
" clip-path="url(#pa5d31608bc)" style="fill: #ff7f0e; opacity: 0.85"/>
   </g>
   <g id="patch_204">
    <path d="M 833.140429 252 
L 836.903525 252 
L 836.903525 248.62527 
L 833.140429 248.62527 
z
" clip-path="url(#pa5d31608bc)" style="fill: #ff7f0e; opacity: 0.85"/>
   </g>
   <g id="patch_205">
    <path d="M 836.903525 252 
L 840.666621 252 
L 840.666621 248.113947 
L 836.903525 248.113947 
z
" clip-path="url(#pa5d31608bc)" style="fill: #ff7f0e; opacity: 0.85"/>
   </g>
   <g id="patch_206">
    <path d="M 840.666621 252 
L 844.429717 252 
L 844.429717 247.807153 
L 840.666621 247.807153 
z
" clip-path="url(#pa5d31608bc)" style="fill: #ff7f0e; opacity: 0.85"/>
   </g>
   <g id="patch_207">
    <path d="M 844.429717 252 
L 848.192813 252 
L 848.192813 249.238857 
L 844.429717 249.238857 
z
" clip-path="url(#pa5d31608bc)" style="fill: #ff7f0e; opacity: 0.85"/>
   </g>
   <g id="patch_208">
    <path d="M 848.192813 252 
L 851.955909 252 
L 851.955909 250.87509 
L 848.192813 250.87509 
z
" clip-path="url(#pa5d31608bc)" style="fill: #ff7f0e; opacity: 0.85"/>
   </g>
   <g id="patch_209">
    <path d="M 851.955909 252 
L 855.719005 252 
L 855.719005 249.443386 
L 851.955909 249.443386 
z
" clip-path="url(#pa5d31608bc)" style="fill: #ff7f0e; opacity: 0.85"/>
   </g>
   <g id="patch_210">
    <path d="M 855.719005 252 
L 859.482101 252 
L 859.482101 249.545651 
L 855.719005 249.545651 
z
" clip-path="url(#pa5d31608bc)" style="fill: #ff7f0e; opacity: 0.85"/>
   </g>
   <g id="patch_211">
    <path d="M 859.482101 252 
L 863.245197 252 
L 863.245197 248.932063 
L 859.482101 248.932063 
z
" clip-path="url(#pa5d31608bc)" style="fill: #ff7f0e; opacity: 0.85"/>
   </g>
   <g id="patch_212">
    <path d="M 863.245197 252 
L 867.008293 252 
L 867.008293 248.932063 
L 863.245197 248.932063 
z
" clip-path="url(#pa5d31608bc)" style="fill: #ff7f0e; opacity: 0.85"/>
   </g>
   <g id="patch_213">
    <path d="M 867.008293 252 
L 870.771389 252 
L 870.771389 251.181884 
L 867.008293 251.181884 
z
" clip-path="url(#pa5d31608bc)" style="fill: #ff7f0e; opacity: 0.85"/>
   </g>
   <g id="patch_214">
    <path d="M 870.771389 252 
L 874.534485 252 
L 874.534485 251.284148 
L 870.771389 251.284148 
z
" clip-path="url(#pa5d31608bc)" style="fill: #ff7f0e; opacity: 0.85"/>
   </g>
   <g id="patch_215">
    <path d="M 874.534485 252 
L 878.297581 252 
L 878.297581 250.670561 
L 874.534485 250.670561 
z
" clip-path="url(#pa5d31608bc)" style="fill: #ff7f0e; opacity: 0.85"/>
   </g>
   <g id="patch_216">
    <path d="M 878.297581 252 
L 882.060677 252 
L 882.060677 250.670561 
L 878.297581 250.670561 
z
" clip-path="url(#pa5d31608bc)" style="fill: #ff7f0e; opacity: 0.85"/>
   </g>
   <g id="patch_217">
    <path d="M 882.060677 252 
L 885.823773 252 
L 885.823773 249.954709 
L 882.060677 249.954709 
z
" clip-path="url(#pa5d31608bc)" style="fill: #ff7f0e; opacity: 0.85"/>
   </g>
   <g id="patch_218">
    <path d="M 885.823773 252 
L 889.586869 252 
L 889.586869 251.284148 
L 885.823773 251.284148 
z
" clip-path="url(#pa5d31608bc)" style="fill: #ff7f0e; opacity: 0.85"/>
   </g>
   <g id="patch_219">
    <path d="M 889.586869 252 
L 893.349965 252 
L 893.349965 251.488677 
L 889.586869 251.488677 
z
" clip-path="url(#pa5d31608bc)" style="fill: #ff7f0e; opacity: 0.85"/>
   </g>
   <g id="patch_220">
    <path d="M 893.349965 252 
L 897.113061 252 
L 897.113061 251.590942 
L 893.349965 251.590942 
z
" clip-path="url(#pa5d31608bc)" style="fill: #ff7f0e; opacity: 0.85"/>
   </g>
   <g id="patch_221">
    <path d="M 897.113061 252 
L 900.876157 252 
L 900.876157 251.181884 
L 897.113061 251.181884 
z
" clip-path="url(#pa5d31608bc)" style="fill: #ff7f0e; opacity: 0.85"/>
   </g>
   <g id="patch_222">
    <path d="M 900.876157 252 
L 904.639253 252 
L 904.639253 251.386413 
L 900.876157 251.386413 
z
" clip-path="url(#pa5d31608bc)" style="fill: #ff7f0e; opacity: 0.85"/>
   </g>
   <g id="patch_223">
    <path d="M 904.639253 252 
L 908.402349 252 
L 908.402349 251.897735 
L 904.639253 251.897735 
z
" clip-path="url(#pa5d31608bc)" style="fill: #ff7f0e; opacity: 0.85"/>
   </g>
   <g id="patch_224">
    <path d="M 908.402349 252 
L 912.165445 252 
L 912.165445 251.079619 
L 908.402349 251.079619 
z
" clip-path="url(#pa5d31608bc)" style="fill: #ff7f0e; opacity: 0.85"/>
   </g>
   <g id="patch_225">
    <path d="M 912.165445 252 
L 915.928541 252 
L 915.928541 251.897735 
L 912.165445 251.897735 
z
" clip-path="url(#pa5d31608bc)" style="fill: #ff7f0e; opacity: 0.85"/>
   </g>
   <g id="patch_226">
    <path d="M 915.928541 252 
L 919.691637 252 
L 919.691637 251.693206 
L 915.928541 251.693206 
z
" clip-path="url(#pa5d31608bc)" style="fill: #ff7f0e; opacity: 0.85"/>
   </g>
   <g id="patch_227">
    <path d="M 919.691637 252 
L 923.454733 252 
L 923.454733 251.590942 
L 919.691637 251.590942 
z
" clip-path="url(#pa5d31608bc)" style="fill: #ff7f0e; opacity: 0.85"/>
   </g>
   <g id="patch_228">
    <path d="M 923.454733 252 
L 927.217829 252 
L 927.217829 251.897735 
L 923.454733 251.897735 
z
" clip-path="url(#pa5d31608bc)" style="fill: #ff7f0e; opacity: 0.85"/>
   </g>
   <g id="patch_229">
    <path d="M 927.217829 252 
L 930.980925 252 
L 930.980925 250.977354 
L 927.217829 250.977354 
z
" clip-path="url(#pa5d31608bc)" style="fill: #ff7f0e; opacity: 0.85"/>
   </g>
   <g id="patch_230">
    <path d="M 930.980925 252 
L 934.744021 252 
L 934.744021 251.590942 
L 930.980925 251.590942 
z
" clip-path="url(#pa5d31608bc)" style="fill: #ff7f0e; opacity: 0.85"/>
   </g>
   <g id="patch_231">
    <path d="M 934.744021 252 
L 938.507117 252 
L 938.507117 251.284148 
L 934.744021 251.284148 
z
" clip-path="url(#pa5d31608bc)" style="fill: #ff7f0e; opacity: 0.85"/>
   </g>
   <g id="patch_232">
    <path d="M 938.507117 252 
L 942.270213 252 
L 942.270213 251.488677 
L 938.507117 251.488677 
z
" clip-path="url(#pa5d31608bc)" style="fill: #ff7f0e; opacity: 0.85"/>
   </g>
   <g id="patch_233">
    <path d="M 942.270213 252 
L 946.033309 252 
L 946.033309 251.693206 
L 942.270213 251.693206 
z
" clip-path="url(#pa5d31608bc)" style="fill: #ff7f0e; opacity: 0.85"/>
   </g>
   <g id="patch_234">
    <path d="M 946.033309 252 
L 949.796406 252 
L 949.796406 251.795471 
L 946.033309 251.795471 
z
" clip-path="url(#pa5d31608bc)" style="fill: #ff7f0e; opacity: 0.85"/>
   </g>
   <g id="patch_235">
    <path d="M 949.796406 252 
L 953.559502 252 
L 953.559502 251.795471 
L 949.796406 251.795471 
z
" clip-path="url(#pa5d31608bc)" style="fill: #ff7f0e; opacity: 0.85"/>
   </g>
   <g id="patch_236">
    <path d="M 953.559502 252 
L 957.322598 252 
L 957.322598 251.488677 
L 953.559502 251.488677 
z
" clip-path="url(#pa5d31608bc)" style="fill: #ff7f0e; opacity: 0.85"/>
   </g>
   <g id="patch_237">
    <path d="M 957.322598 252 
L 961.085694 252 
L 961.085694 251.897735 
L 957.322598 251.897735 
z
" clip-path="url(#pa5d31608bc)" style="fill: #ff7f0e; opacity: 0.85"/>
   </g>
   <g id="patch_238">
    <path d="M 961.085694 252 
L 964.84879 252 
L 964.84879 252 
L 961.085694 252 
z
" clip-path="url(#pa5d31608bc)" style="fill: #ff7f0e; opacity: 0.85"/>
   </g>
   <g id="patch_239">
    <path d="M 964.84879 252 
L 968.611886 252 
L 968.611886 252 
L 964.84879 252 
z
" clip-path="url(#pa5d31608bc)" style="fill: #ff7f0e; opacity: 0.85"/>
   </g>
   <g id="patch_240">
    <path d="M 968.611886 252 
L 972.374982 252 
L 972.374982 252 
L 968.611886 252 
z
" clip-path="url(#pa5d31608bc)" style="fill: #ff7f0e; opacity: 0.85"/>
   </g>
   <g id="patch_241">
    <path d="M 972.374982 252 
L 976.138078 252 
L 976.138078 252 
L 972.374982 252 
z
" clip-path="url(#pa5d31608bc)" style="fill: #ff7f0e; opacity: 0.85"/>
   </g>
   <g id="patch_242">
    <path d="M 976.138078 252 
L 979.901174 252 
L 979.901174 251.897735 
L 976.138078 251.897735 
z
" clip-path="url(#pa5d31608bc)" style="fill: #ff7f0e; opacity: 0.85"/>
   </g>
   <g id="patch_243">
    <path d="M 979.901174 252 
L 983.66427 252 
L 983.66427 252 
L 979.901174 252 
z
" clip-path="url(#pa5d31608bc)" style="fill: #ff7f0e; opacity: 0.85"/>
   </g>
   <g id="patch_244">
    <path d="M 983.66427 252 
L 987.427366 252 
L 987.427366 252 
L 983.66427 252 
z
" clip-path="url(#pa5d31608bc)" style="fill: #ff7f0e; opacity: 0.85"/>
   </g>
   <g id="patch_245">
    <path d="M 987.427366 252 
L 991.190462 252 
L 991.190462 252 
L 987.427366 252 
z
" clip-path="url(#pa5d31608bc)" style="fill: #ff7f0e; opacity: 0.85"/>
   </g>
   <g id="patch_246">
    <path d="M 991.190462 252 
L 994.953558 252 
L 994.953558 252 
L 991.190462 252 
z
" clip-path="url(#pa5d31608bc)" style="fill: #ff7f0e; opacity: 0.85"/>
   </g>
   <g id="patch_247">
    <path d="M 994.953558 252 
L 998.716654 252 
L 998.716654 251.897735 
L 994.953558 251.897735 
z
" clip-path="url(#pa5d31608bc)" style="fill: #ff7f0e; opacity: 0.85"/>
   </g>
   <g id="patch_248">
    <path d="M 998.716654 252 
L 1002.47975 252 
L 1002.47975 252 
L 998.716654 252 
z
" clip-path="url(#pa5d31608bc)" style="fill: #ff7f0e; opacity: 0.85"/>
   </g>
   <g id="patch_249">
    <path d="M 1002.47975 252 
L 1006.242846 252 
L 1006.242846 252 
L 1002.47975 252 
z
" clip-path="url(#pa5d31608bc)" style="fill: #ff7f0e; opacity: 0.85"/>
   </g>
   <g id="patch_250">
    <path d="M 1006.242846 252 
L 1010.005942 252 
L 1010.005942 252 
L 1006.242846 252 
z
" clip-path="url(#pa5d31608bc)" style="fill: #ff7f0e; opacity: 0.85"/>
   </g>
   <g id="patch_251">
    <path d="M 1010.005942 252 
L 1013.769038 252 
L 1013.769038 251.795471 
L 1010.005942 251.795471 
z
" clip-path="url(#pa5d31608bc)" style="fill: #ff7f0e; opacity: 0.85"/>
   </g>
   <g id="patch_252">
    <path d="M 1013.769038 252 
L 1017.532134 252 
L 1017.532134 251.693206 
L 1013.769038 251.693206 
z
" clip-path="url(#pa5d31608bc)" style="fill: #ff7f0e; opacity: 0.85"/>
   </g>
   <g id="matplotlib.axis_1">
    <g id="xtick_1">
     <g id="line2d_1">
      <defs>
       <path id="m82c6a7bd44" d="M 0 0 
L 0 3.5 
" style="stroke: #000000; stroke-width: 0.8"/>
      </defs>
      <g>
       <use xlink:href="#m82c6a7bd44" x="66.477019" y="252" style="stroke: #000000; stroke-width: 0.8"/>
      </g>
     </g>
     <g id="text_1">
      <!-- $\mathdefault{2}$ -->
      <g transform="translate(63.306649 267.994028)scale(0.13 -0.13)">
       <defs>
        <path id="CMR17-32" d="M 2669 990 
L 2554 990 
C 2490 537 2438 460 2413 422 
C 2381 371 1920 371 1830 371 
L 602 371 
C 832 620 1280 1073 1824 1596 
C 2214 1966 2669 2400 2669 3033 
C 2669 3788 2067 4224 1395 4224 
C 691 4224 262 3603 262 3027 
C 262 2777 448 2745 525 2745 
C 589 2745 781 2783 781 3007 
C 781 3206 614 3264 525 3264 
C 486 3264 448 3257 422 3244 
C 544 3788 915 4057 1306 4057 
C 1862 4057 2227 3616 2227 3033 
C 2227 2477 1901 1998 1536 1583 
L 262 147 
L 262 0 
L 2515 0 
L 2669 990 
z
" transform="scale(0.015625)"/>
       </defs>
       <use xlink:href="#CMR17-32" transform="scale(0.996264)"/>
      </g>
     </g>
    </g>
    <g id="xtick_2">
     <g id="line2d_2">
      <g>
       <use xlink:href="#m82c6a7bd44" x="149.657143" y="252" style="stroke: #000000; stroke-width: 0.8"/>
      </g>
     </g>
     <g id="text_2">
      <!-- $\mathdefault{4}$ -->
      <g transform="translate(146.486773 267.994028)scale(0.13 -0.13)">
       <defs>
        <path id="CMR17-34" d="M 2150 4147 
C 2150 4281 2144 4288 2029 4288 
L 128 1254 
L 128 1088 
L 1779 1088 
L 1779 460 
C 1779 230 1766 166 1318 166 
L 1197 166 
L 1197 0 
C 1402 12 1747 12 1965 12 
C 2182 12 2528 12 2733 0 
L 2733 166 
L 2611 166 
C 2163 166 2150 230 2150 460 
L 2150 1088 
L 2803 1088 
L 2803 1254 
L 2150 1254 
L 2150 4147 
z
M 1798 3723 
L 1798 1254 
L 256 1254 
L 1798 3723 
z
" transform="scale(0.015625)"/>
       </defs>
       <use xlink:href="#CMR17-34" transform="scale(0.996264)"/>
      </g>
     </g>
    </g>
    <g id="xtick_3">
     <g id="line2d_3">
      <g>
       <use xlink:href="#m82c6a7bd44" x="232.837267" y="252" style="stroke: #000000; stroke-width: 0.8"/>
      </g>
     </g>
     <g id="text_3">
      <!-- $\mathdefault{6}$ -->
      <g transform="translate(229.666897 267.994028)scale(0.13 -0.13)">
       <defs>
        <path id="CMR17-36" d="M 678 2198 
C 678 3712 1395 4076 1811 4076 
C 1946 4076 2272 4049 2400 3782 
C 2298 3782 2106 3782 2106 3558 
C 2106 3385 2246 3328 2336 3328 
C 2394 3328 2566 3353 2566 3571 
C 2566 3987 2246 4224 1805 4224 
C 1043 4224 243 3411 243 2011 
C 243 257 966 -128 1478 -128 
C 2099 -128 2688 431 2688 1295 
C 2688 2101 2170 2688 1517 2688 
C 1126 2688 838 2430 678 1979 
L 678 2198 
z
M 1478 25 
C 691 25 691 1212 691 1450 
C 691 1914 909 2585 1504 2585 
C 1613 2585 1926 2585 2138 2140 
C 2253 1889 2253 1624 2253 1302 
C 2253 954 2253 696 2118 438 
C 1978 173 1773 25 1478 25 
z
" transform="scale(0.015625)"/>
       </defs>
       <use xlink:href="#CMR17-36" transform="scale(0.996264)"/>
      </g>
     </g>
    </g>
    <g id="xtick_4">
     <g id="line2d_4">
      <g>
       <use xlink:href="#m82c6a7bd44" x="316.017391" y="252" style="stroke: #000000; stroke-width: 0.8"/>
      </g>
     </g>
     <g id="text_4">
      <!-- $\mathdefault{8}$ -->
      <g transform="translate(312.847022 267.994028)scale(0.13 -0.13)">
       <defs>
        <path id="CMR17-38" d="M 1741 2289 
C 2144 2494 2554 2803 2554 3298 
C 2554 3884 1990 4224 1472 4224 
C 890 4224 378 3800 378 3215 
C 378 3054 416 2777 666 2533 
C 730 2469 998 2276 1171 2154 
C 883 2006 211 1652 211 945 
C 211 282 838 -128 1459 -128 
C 2144 -128 2720 366 2720 1022 
C 2720 1607 2330 1877 2074 2051 
L 1741 2289 
z
M 902 2855 
C 851 2887 595 3086 595 3388 
C 595 3781 998 4076 1459 4076 
C 1965 4076 2336 3716 2336 3298 
C 2336 2700 1670 2359 1638 2359 
C 1632 2359 1626 2359 1574 2398 
L 902 2855 
z
M 2080 1536 
C 2176 1466 2483 1253 2483 861 
C 2483 385 2010 25 1472 25 
C 890 25 448 443 448 951 
C 448 1459 838 1884 1280 2083 
L 2080 1536 
z
" transform="scale(0.015625)"/>
       </defs>
       <use xlink:href="#CMR17-38" transform="scale(0.996264)"/>
      </g>
     </g>
    </g>
    <g id="text_5">
     <!-- $r_{ij}\;[\mathrm{\mathring{A}}]$ -->
     <g transform="translate(204.460251 286.780194)scale(0.13 -0.13)">
      <defs>
       <path id="CMMI12-72" d="M 2490 2633 
C 2291 2598 2189 2457 2189 2316 
C 2189 2163 2310 2111 2400 2111 
C 2579 2111 2726 2265 2726 2457 
C 2726 2651 2528 2816 2208 2816 
C 1952 2816 1658 2700 1389 2335 
C 1344 2660 1088 2816 832 2816 
C 582 2816 454 2642 378 2508 
C 269 2278 173 1892 173 1860 
C 173 1834 198 1801 243 1801 
C 294 1801 301 1808 339 1957 
C 435 2342 557 2687 813 2687 
C 966 2687 1011 2604 1011 2419 
C 1011 2278 947 2028 902 1827 
L 723 1130 
C 698 1007 627 716 595 600 
C 550 432 480 128 480 96 
C 480 6 550 -64 646 -64 
C 717 -64 838 -20 877 109 
C 896 160 1133 1136 1171 1285 
C 1203 1427 1242 1562 1274 1705 
C 1299 1795 1325 1898 1344 1982 
C 1363 2040 1536 2355 1696 2495 
C 1773 2566 1939 2687 2202 2687 
C 2304 2687 2406 2674 2490 2633 
z
" transform="scale(0.015625)"/>
       <path id="CMMI12-69" d="M 1811 913 
C 1811 945 1786 970 1747 970 
C 1690 970 1683 951 1651 842 
C 1485 261 1222 64 1011 64 
C 934 64 845 83 845 274 
C 845 447 922 638 992 830 
L 1440 2017 
C 1459 2068 1504 2183 1504 2305 
C 1504 2573 1312 2816 998 2816 
C 410 2816 173 1890 173 1838 
C 173 1813 198 1781 243 1781 
C 301 1781 307 1807 333 1896 
C 486 2432 730 2687 979 2687 
C 1037 2687 1146 2681 1146 2477 
C 1146 2311 1062 2100 1011 1960 
L 563 772 
C 525 670 486 568 486 453 
C 486 166 685 -64 992 -64 
C 1581 -64 1811 868 1811 913 
z
M 1760 4012 
C 1760 4108 1683 4224 1542 4224 
C 1395 4224 1229 4083 1229 3916 
C 1229 3756 1363 3705 1440 3705 
C 1613 3705 1760 3871 1760 4012 
z
" transform="scale(0.015625)"/>
       <path id="CMMI12-6a" d="M 2240 2027 
C 2266 2129 2266 2218 2266 2243 
C 2266 2611 1990 2816 1702 2816 
C 1056 2816 710 1888 710 1843 
C 710 1811 736 1786 774 1786 
C 826 1786 832 1811 864 1875 
C 1120 2491 1440 2687 1683 2687 
C 1818 2687 1888 2617 1888 2395 
C 1888 2243 1869 2180 1843 2065 
L 1235 -327 
C 1114 -797 813 -1152 461 -1152 
C 435 -1152 301 -1152 179 -1089 
C 333 -1057 454 -937 454 -784 
C 454 -683 378 -581 237 -581 
C 70 -581 -83 -721 -83 -911 
C -83 -1172 198 -1280 461 -1280 
C 902 -1280 1485 -956 1645 -321 
L 2240 2027 
z
M 2502 4012 
C 2502 4172 2368 4224 2291 4224 
C 2118 4224 1971 4057 1971 3916 
C 1971 3820 2048 3705 2189 3705 
C 2336 3705 2502 3846 2502 4012 
z
" transform="scale(0.015625)"/>
       <path id="CMR17-5b" d="M 1504 -1600 
L 1504 -1376 
L 902 -1376 
L 902 4575 
L 1504 4575 
L 1504 4800 
L 678 4800 
L 678 -1600 
L 1504 -1600 
z
" transform="scale(0.015625)"/>
       <path id="CMR17-17" d="M 2771 3980 
C 2771 4300 2515 4544 2214 4544 
C 1914 4544 1658 4300 1658 3980 
C 1658 3660 1914 3417 2214 3417 
C 2515 3417 2771 3660 2771 3980 
z
M 2214 3520 
C 1946 3520 1773 3686 1773 3980 
C 1773 4281 1952 4441 2214 4441 
C 2483 4441 2656 4275 2656 3980 
C 2656 3680 2477 3520 2214 3520 
z
" transform="scale(0.015625)"/>
       <path id="CMR17-41" d="M 2323 4441 
C 2291 4524 2278 4544 2214 4544 
C 2150 4544 2138 4524 2106 4441 
L 749 580 
C 627 236 371 166 147 166 
L 147 0 
C 262 12 518 12 640 12 
C 800 12 1056 12 1210 0 
L 1210 166 
C 909 179 864 382 864 459 
C 864 516 877 548 890 586 
L 1229 1536 
L 2906 1536 
L 3290 453 
C 3322 376 3322 363 3322 338 
C 3322 166 3046 166 2925 166 
L 2925 0 
C 3110 12 3443 12 3642 12 
C 3808 12 4128 12 4282 0 
L 4282 166 
C 3942 166 3827 166 3744 402 
L 2323 4441 
z
M 2067 3924 
L 2848 1702 
L 1286 1702 
L 2067 3924 
z
" transform="scale(0.015625)"/>
       <path id="CMR17-5d" d="M 915 4800 
L 90 4800 
L 90 4575 
L 691 4575 
L 691 -1376 
L 90 -1376 
L 90 -1600 
L 915 -1600 
L 915 4800 
z
" transform="scale(0.015625)"/>
      </defs>
      <use xlink:href="#CMMI12-72" transform="scale(0.996264)"/>
      <use xlink:href="#CMMI12-69" transform="translate(43.960894 -14.943915)scale(0.697382)"/>
      <use xlink:href="#CMMI12-6a" transform="translate(67.255802 -14.943915)scale(0.697382)"/>
      <use xlink:href="#CMR17-5b" transform="translate(127.601527 0)scale(0.996264)"/>
      <use xlink:href="#CMR17-17" transform="translate(152.472585 25.175672)scale(0.996264)"/>
      <use xlink:href="#CMR17-41" transform="translate(152.472585 0)scale(0.996264)"/>
      <use xlink:href="#CMR17-5d" transform="translate(221.545015 0)scale(0.996264)"/>
     </g>
    </g>
   </g>
   <g id="matplotlib.axis_2">
    <g id="ytick_1">
     <g id="line2d_5">
      <defs>
       <path id="m566aae3a30" d="M 0 0 
L -3.5 0 
" style="stroke: #000000; stroke-width: 0.8"/>
      </defs>
      <g>
       <use xlink:href="#m566aae3a30" x="54" y="252" style="stroke: #000000; stroke-width: 0.8"/>
      </g>
     </g>
     <g id="text_6">
      <!-- $\mathdefault{0}$ -->
      <g transform="translate(40.659261 256.497014)scale(0.13 -0.13)">
       <defs>
        <path id="CMR17-30" d="M 2688 2038 
C 2688 2430 2682 3099 2413 3613 
C 2176 4063 1798 4224 1466 4224 
C 1158 4224 768 4082 525 3620 
C 269 3137 243 2539 243 2038 
C 243 1671 250 1112 448 623 
C 723 -39 1216 -128 1466 -128 
C 1760 -128 2208 -7 2470 604 
C 2662 1048 2688 1568 2688 2038 
z
M 1466 -26 
C 1056 -26 813 328 723 816 
C 653 1196 653 1749 653 2109 
C 653 2604 653 3015 736 3407 
C 858 3954 1216 4121 1466 4121 
C 1728 4121 2067 3947 2189 3420 
C 2272 3054 2278 2623 2278 2109 
C 2278 1691 2278 1176 2202 797 
C 2067 96 1690 -26 1466 -26 
z
" transform="scale(0.015625)"/>
       </defs>
       <use xlink:href="#CMR17-30" transform="scale(0.996264)"/>
      </g>
     </g>
    </g>
    <g id="ytick_2">
     <g id="line2d_6">
      <g>
       <use xlink:href="#m566aae3a30" x="54" y="200.867725" style="stroke: #000000; stroke-width: 0.8"/>
      </g>
     </g>
     <g id="text_7">
      <!-- $\mathdefault{1000}$ -->
      <g transform="translate(21.637042 205.364739)scale(0.13 -0.13)">
       <defs>
        <path id="CMR17-31" d="M 1702 4083 
C 1702 4217 1696 4224 1606 4224 
C 1357 3927 979 3833 621 3820 
C 602 3820 570 3820 563 3808 
C 557 3795 557 3782 557 3648 
C 755 3648 1088 3686 1344 3839 
L 1344 467 
C 1344 243 1331 166 781 166 
L 589 166 
L 589 0 
C 896 6 1216 12 1523 12 
C 1830 12 2150 6 2458 0 
L 2458 166 
L 2266 166 
C 1715 166 1702 236 1702 467 
L 1702 4083 
z
" transform="scale(0.015625)"/>
       </defs>
       <use xlink:href="#CMR17-31" transform="scale(0.996264)"/>
       <use xlink:href="#CMR17-30" transform="translate(45.690477 0)scale(0.996264)"/>
       <use xlink:href="#CMR17-30" transform="translate(91.380954 0)scale(0.996264)"/>
       <use xlink:href="#CMR17-30" transform="translate(137.071431 0)scale(0.996264)"/>
      </g>
     </g>
    </g>
    <g id="ytick_3">
     <g id="line2d_7">
      <g>
       <use xlink:href="#m566aae3a30" x="54" y="149.73545" style="stroke: #000000; stroke-width: 0.8"/>
      </g>
     </g>
     <g id="text_8">
      <!-- $\mathdefault{2000}$ -->
      <g transform="translate(21.637042 154.232464)scale(0.13 -0.13)">
       <use xlink:href="#CMR17-32" transform="scale(0.996264)"/>
       <use xlink:href="#CMR17-30" transform="translate(45.690477 0)scale(0.996264)"/>
       <use xlink:href="#CMR17-30" transform="translate(91.380954 0)scale(0.996264)"/>
       <use xlink:href="#CMR17-30" transform="translate(137.071431 0)scale(0.996264)"/>
      </g>
     </g>
    </g>
    <g id="ytick_4">
     <g id="line2d_8">
      <g>
       <use xlink:href="#m566aae3a30" x="54" y="98.603175" style="stroke: #000000; stroke-width: 0.8"/>
      </g>
     </g>
     <g id="text_9">
      <!-- $\mathdefault{3000}$ -->
      <g transform="translate(21.637042 103.100189)scale(0.13 -0.13)">
       <defs>
        <path id="CMR17-33" d="M 1414 2176 
C 1984 2176 2234 1673 2234 1094 
C 2234 322 1824 25 1453 25 
C 1114 25 563 193 390 691 
C 422 678 454 678 486 678 
C 640 678 755 780 755 947 
C 755 1132 614 1216 486 1216 
C 378 1216 211 1164 211 927 
C 211 335 787 -128 1466 -128 
C 2176 -128 2720 432 2720 1087 
C 2720 1718 2208 2176 1600 2246 
C 2086 2347 2554 2776 2554 3353 
C 2554 3856 2048 4224 1472 4224 
C 890 4224 378 3862 378 3347 
C 378 3123 544 3084 627 3084 
C 762 3084 877 3167 877 3334 
C 877 3500 762 3584 627 3584 
C 602 3584 570 3584 544 3571 
C 730 3999 1235 4076 1459 4076 
C 1683 4076 2106 3966 2106 3347 
C 2106 3167 2080 2851 1862 2574 
C 1670 2329 1453 2316 1242 2297 
C 1210 2297 1062 2284 1037 2284 
C 992 2278 966 2272 966 2227 
C 966 2182 973 2176 1101 2176 
L 1414 2176 
z
" transform="scale(0.015625)"/>
       </defs>
       <use xlink:href="#CMR17-33" transform="scale(0.996264)"/>
       <use xlink:href="#CMR17-30" transform="translate(45.690477 0)scale(0.996264)"/>
       <use xlink:href="#CMR17-30" transform="translate(91.380954 0)scale(0.996264)"/>
       <use xlink:href="#CMR17-30" transform="translate(137.071431 0)scale(0.996264)"/>
      </g>
     </g>
    </g>
    <g id="ytick_5">
     <g id="line2d_9">
      <g>
       <use xlink:href="#m566aae3a30" x="54" y="47.470899" style="stroke: #000000; stroke-width: 0.8"/>
      </g>
     </g>
     <g id="text_10">
      <!-- $\mathdefault{4000}$ -->
      <g transform="translate(21.637042 51.967914)scale(0.13 -0.13)">
       <use xlink:href="#CMR17-34" transform="scale(0.996264)"/>
       <use xlink:href="#CMR17-30" transform="translate(45.690477 0)scale(0.996264)"/>
       <use xlink:href="#CMR17-30" transform="translate(91.380954 0)scale(0.996264)"/>
       <use xlink:href="#CMR17-30" transform="translate(137.071431 0)scale(0.996264)"/>
      </g>
     </g>
    </g>
    <g id="text_11">
     <!-- $\mathrm{counts}\;[\mathrm{a}.\mathrm{u}.]$ -->
     <g transform="translate(14.399184 176.641573)rotate(-90)scale(0.13 -0.13)">
      <defs>
       <path id="CMR17-63" d="M 2234 2240 
C 2112 2240 1933 2240 1933 2015 
C 1933 1836 2080 1785 2163 1785 
C 2208 1785 2394 1804 2394 2028 
C 2394 2476 1958 2816 1466 2816 
C 787 2816 211 2201 211 1379 
C 211 521 813 -64 1466 -64 
C 2259 -64 2458 676 2458 747 
C 2458 773 2451 792 2406 792 
C 2362 792 2355 786 2330 702 
C 2163 180 1798 51 1523 51 
C 1114 51 621 431 621 1385 
C 621 2358 1094 2700 1472 2700 
C 1722 2700 2093 2582 2234 2240 
z
" transform="scale(0.015625)"/>
       <path id="CMR17-6f" d="M 2758 1356 
C 2758 2176 2163 2816 1466 2816 
C 768 2816 173 2176 173 1356 
C 173 550 768 -64 1466 -64 
C 2163 -64 2758 550 2758 1356 
z
M 1466 51 
C 1165 51 909 230 762 480 
C 602 768 582 1126 582 1408 
C 582 1676 595 2009 762 2297 
C 890 2508 1139 2713 1466 2713 
C 1754 2713 1997 2553 2150 2329 
C 2349 2028 2349 1606 2349 1408 
C 2349 1158 2336 774 2163 467 
C 1984 172 1709 51 1466 51 
z
" transform="scale(0.015625)"/>
       <path id="CMR17-75" d="M 1882 2745 
L 1882 2579 
C 2259 2579 2317 2540 2317 2229 
L 2317 1053 
C 2317 510 2029 38 1555 38 
C 1030 38 986 355 986 691 
L 986 2816 
L 211 2745 
L 211 2579 
C 467 2579 640 2579 646 2320 
L 646 1079 
C 646 646 646 368 813 187 
C 896 103 1056 -64 1517 -64 
C 2061 -64 2272 400 2323 536 
L 2330 536 
L 2330 -64 
L 3091 -13 
L 3091 154 
C 2714 154 2656 193 2656 503 
L 2656 2816 
L 1882 2745 
z
" transform="scale(0.015625)"/>
       <path id="CMR17-6e" d="M 2656 1954 
C 2656 2282 2592 2816 1837 2816 
C 1331 2816 1069 2424 973 2166 
L 966 2166 
L 966 2816 
L 211 2745 
L 211 2578 
C 589 2578 646 2540 646 2231 
L 646 443 
C 646 198 621 166 211 166 
L 211 0 
C 365 12 646 12 813 12 
C 979 12 1267 12 1421 0 
L 1421 166 
C 1011 166 986 192 986 443 
L 986 1678 
C 986 2269 1344 2713 1792 2713 
C 2266 2713 2317 2289 2317 1980 
L 2317 443 
C 2317 198 2291 166 1882 166 
L 1882 0 
C 2035 12 2317 12 2483 12 
C 2650 12 2938 12 3091 0 
L 3091 166 
C 2682 166 2656 192 2656 443 
L 2656 1954 
z
" transform="scale(0.015625)"/>
       <path id="CMR17-74" d="M 966 2585 
L 1862 2585 
L 1862 2752 
L 966 2752 
L 966 3968 
L 851 3968 
C 838 3292 614 2700 70 2687 
L 70 2585 
L 627 2585 
L 627 778 
C 627 655 627 -64 1370 -64 
C 1747 -64 1965 308 1965 784 
L 1965 1151 
L 1850 1151 
L 1850 790 
C 1850 347 1677 51 1408 51 
C 1222 51 966 179 966 765 
L 966 2585 
z
" transform="scale(0.015625)"/>
       <path id="CMR17-73" d="M 1978 2688 
C 1978 2803 1971 2809 1933 2809 
C 1907 2809 1901 2803 1824 2707 
C 1805 2681 1747 2617 1728 2592 
C 1523 2809 1235 2816 1126 2816 
C 416 2816 160 2444 160 2073 
C 160 1497 813 1363 998 1324 
C 1402 1241 1542 1216 1677 1100 
C 1760 1024 1901 883 1901 652 
C 1901 384 1747 38 1158 38 
C 602 38 403 460 288 1024 
C 269 1113 269 1120 218 1120 
C 166 1120 160 1113 160 985 
L 160 64 
C 160 -52 166 -58 205 -58 
C 237 -58 243 -52 275 0 
C 314 57 410 211 448 275 
C 576 102 800 -64 1158 -64 
C 1792 -64 2131 281 2131 780 
C 2131 1107 1958 1280 1875 1356 
C 1683 1555 1459 1600 1190 1651 
C 838 1728 390 1817 390 2208 
C 390 2374 480 2726 1126 2726 
C 1811 2726 1850 2086 1862 1881 
C 1869 1849 1901 1843 1920 1843 
C 1978 1843 1978 1862 1978 1971 
L 1978 2688 
z
" transform="scale(0.015625)"/>
       <path id="CMR17-61" d="M 2304 1656 
C 2304 2048 2304 2275 2035 2534 
C 1798 2751 1523 2816 1306 2816 
C 800 2816 435 2408 435 1977 
C 435 1740 627 1728 666 1728 
C 749 1728 896 1779 896 1958 
C 896 2118 774 2188 666 2188 
C 640 2188 608 2182 589 2176 
C 723 2594 1069 2713 1293 2713 
C 1613 2713 1965 2421 1965 1875 
L 1965 1632 
C 1587 1619 1133 1568 774 1373 
C 371 1147 256 822 256 576 
C 256 77 832 -64 1171 -64 
C 1523 -64 1850 135 1990 505 
C 2003 219 2182 -39 2464 -39 
C 2598 -39 2938 51 2938 563 
L 2938 926 
L 2822 926 
L 2822 557 
C 2822 161 2650 109 2566 109 
C 2304 109 2304 446 2304 732 
L 2304 1656 
z
M 1965 887 
C 1965 323 1568 38 1216 38 
C 896 38 646 278 646 576 
C 646 771 730 1114 1101 1322 
C 1408 1497 1760 1523 1965 1536 
L 1965 887 
z
" transform="scale(0.015625)"/>
       <path id="CMMI12-3a" d="M 1178 307 
C 1178 492 1024 620 870 620 
C 685 620 557 467 557 313 
C 557 128 710 0 864 0 
C 1050 0 1178 153 1178 307 
z
" transform="scale(0.015625)"/>
      </defs>
      <use xlink:href="#CMR17-63" transform="scale(0.996264)"/>
      <use xlink:href="#CMR17-6f" transform="translate(40.48566 0)scale(0.996264)"/>
      <use xlink:href="#CMR17-75" transform="translate(86.176138 0)scale(0.996264)"/>
      <use xlink:href="#CMR17-6e" transform="translate(137.071507 0)scale(0.996264)"/>
      <use xlink:href="#CMR17-74" transform="translate(185.364423 0)scale(0.996264)"/>
      <use xlink:href="#CMR17-73" transform="translate(220.645191 0)scale(0.996264)"/>
      <use xlink:href="#CMR17-5b" transform="translate(284.120537 0)scale(0.996264)"/>
      <use xlink:href="#CMR17-61" transform="translate(308.991596 0)scale(0.996264)"/>
      <use xlink:href="#CMMI12-3a" transform="translate(354.682073 0)scale(0.996264)"/>
      <use xlink:href="#CMR17-75" transform="translate(381.77925 0)scale(0.996264)"/>
      <use xlink:href="#CMMI12-3a" transform="translate(432.67462 0)scale(0.996264)"/>
      <use xlink:href="#CMR17-5d" transform="translate(459.771797 0)scale(0.996264)"/>
     </g>
    </g>
   </g>
   <g id="line2d_10">
    <path d="M 90.420176 252 
L 90.420176 34.56 
" clip-path="url(#pa5d31608bc)" style="fill: none; stroke: #2ca02c; stroke-opacity: 0.5; stroke-width: 1.5; stroke-linecap: square"/>
   </g>
   <g id="line2d_11">
    <path d="M 130.914233 252 
L 130.914233 34.56 
" clip-path="url(#pa5d31608bc)" style="fill: none; stroke: #2ca02c; stroke-opacity: 0.5; stroke-width: 1.5; stroke-linecap: square"/>
   </g>
   <g id="line2d_12">
    <path d="M 165.233623 252 
L 165.233623 34.56 
" clip-path="url(#pa5d31608bc)" style="fill: none; stroke: #2ca02c; stroke-opacity: 0.5; stroke-width: 1.5; stroke-linecap: square"/>
   </g>
   <g id="line2d_13">
    <path d="M 197.737271 252 
L 197.737271 34.56 
" clip-path="url(#pa5d31608bc)" style="fill: none; stroke: #2ca02c; stroke-opacity: 0.5; stroke-width: 1.5; stroke-linecap: square"/>
   </g>
   <g id="line2d_14">
    <path d="M 219.153554 252 
L 219.153554 34.56 
" clip-path="url(#pa5d31608bc)" style="fill: none; stroke: #2ca02c; stroke-opacity: 0.5; stroke-width: 1.5; stroke-linecap: square"/>
   </g>
   <g id="line2d_15">
    <path d="M 240.735279 252 
L 240.735279 34.56 
" clip-path="url(#pa5d31608bc)" style="fill: none; stroke: #2ca02c; stroke-opacity: 0.5; stroke-width: 1.5; stroke-linecap: square"/>
   </g>
   <g id="line2d_16">
    <path d="M 262.227857 252 
L 262.227857 34.56 
" clip-path="url(#pa5d31608bc)" style="fill: none; stroke: #2ca02c; stroke-opacity: 0.5; stroke-width: 1.5; stroke-linecap: square"/>
   </g>
   <g id="line2d_17">
    <path d="M 294.335283 252 
L 294.335283 34.56 
" clip-path="url(#pa5d31608bc)" style="fill: none; stroke: #2ca02c; stroke-opacity: 0.5; stroke-width: 1.5; stroke-linecap: square"/>
   </g>
   <g id="line2d_18">
    <path d="M 358.717419 252 
L 358.717419 34.56 
" clip-path="url(#pa5d31608bc)" style="fill: none; stroke: #2ca02c; stroke-opacity: 0.5; stroke-width: 1.5; stroke-linecap: square"/>
   </g>
   <g id="line2d_19">
    <path clip-path="url(#pa5d31608bc)" style="fill: none; stroke: #1f77b4; stroke-opacity: 0.95; stroke-width: 1.5; stroke-linecap: square"/>
   </g>
   <g id="line2d_20">
    <path d="M 108.067081 252 
L 108.067081 34.56 
" clip-path="url(#pa5d31608bc)" style="fill: none; stroke: #1f77b4; stroke-opacity: 0.95; stroke-width: 1.5; stroke-linecap: square"/>
   </g>
   <g id="line2d_21">
    <path d="M 149.657143 252 
L 149.657143 34.56 
" clip-path="url(#pa5d31608bc)" style="fill: none; stroke: #1f77b4; stroke-opacity: 0.95; stroke-width: 1.5; stroke-linecap: square"/>
   </g>
   <g id="line2d_22">
    <path d="M 176.690683 252 
L 176.690683 34.56 
" clip-path="url(#pa5d31608bc)" style="fill: none; stroke: #1f77b4; stroke-opacity: 0.95; stroke-width: 1.5; stroke-linecap: square"/>
   </g>
   <g id="line2d_23">
    <path d="M 203.724224 252 
L 203.724224 34.56 
" clip-path="url(#pa5d31608bc)" style="fill: none; stroke: #1f77b4; stroke-opacity: 0.95; stroke-width: 1.5; stroke-linecap: square"/>
   </g>
   <g id="line2d_24">
    <path d="M 224.519255 252 
L 224.519255 34.56 
" clip-path="url(#pa5d31608bc)" style="fill: none; stroke: #1f77b4; stroke-opacity: 0.95; stroke-width: 1.5; stroke-linecap: square"/>
   </g>
   <g id="line2d_25">
    <path d="M 244.066584 252 
L 244.066584 34.56 
" clip-path="url(#pa5d31608bc)" style="fill: none; stroke: #1f77b4; stroke-opacity: 0.95; stroke-width: 1.5; stroke-linecap: square"/>
   </g>
   <g id="line2d_26">
    <path d="M 270.268323 252 
L 270.268323 34.56 
" clip-path="url(#pa5d31608bc)" style="fill: none; stroke: #1f77b4; stroke-opacity: 0.95; stroke-width: 1.5; stroke-linecap: square"/>
   </g>
   <g id="line2d_27">
    <path d="M 303.540373 252 
L 303.540373 34.56 
" clip-path="url(#pa5d31608bc)" style="fill: none; stroke: #1f77b4; stroke-opacity: 0.95; stroke-width: 1.5; stroke-linecap: square"/>
   </g>
   <g id="line2d_28">
    <path d="M 320.176398 252 
L 320.176398 34.56 
" clip-path="url(#pa5d31608bc)" style="fill: none; stroke: #1f77b4; stroke-opacity: 0.95; stroke-width: 1.5; stroke-linecap: square"/>
   </g>
   <g id="line2d_29">
    <path d="M 334.732919 252 
L 334.732919 34.56 
" clip-path="url(#pa5d31608bc)" style="fill: none; stroke: #1f77b4; stroke-opacity: 0.95; stroke-width: 1.5; stroke-linecap: square"/>
   </g>
   <g id="line2d_30"/>
   <g id="line2d_31"/>
   <g id="patch_253">
    <path d="M 54 252 
L 54 34.56 
" style="fill: none; stroke: #000000; stroke-width: 0.8; stroke-linejoin: miter; stroke-linecap: square"/>
   </g>
   <g id="patch_254">
    <path d="M 388.8 252 
L 388.8 34.56 
" style="fill: none; stroke: #000000; stroke-width: 0.8; stroke-linejoin: miter; stroke-linecap: square"/>
   </g>
   <g id="patch_255">
    <path d="M 54 252 
L 388.8 252 
" style="fill: none; stroke: #000000; stroke-width: 0.8; stroke-linejoin: miter; stroke-linecap: square"/>
   </g>
   <g id="patch_256">
    <path d="M 54 34.56 
L 388.8 34.56 
" style="fill: none; stroke: #000000; stroke-width: 0.8; stroke-linejoin: miter; stroke-linecap: square"/>
   </g>
   <g id="legend_1">
    <g id="patch_257">
     <path d="M 63.1 100.648056 
L 202.134441 100.648056 
Q 204.734441 100.648056 204.734441 98.048056 
L 204.734441 43.66 
Q 204.734441 41.06 202.134441 41.06 
L 63.1 41.06 
Q 60.5 41.06 60.5 43.66 
L 60.5 98.048056 
Q 60.5 100.648056 63.1 100.648056 
z
" style="fill: #ffffff; opacity: 0.8; stroke: #cccccc; stroke-linejoin: miter"/>
    </g>
    <g id="patch_258">
     <path d="M 65.7 55.973574 
L 91.7 55.973574 
L 91.7 46.873574 
L 65.7 46.873574 
z
" style="fill: #ff7f0e; opacity: 0.85"/>
    </g>
    <g id="text_12">
     <!-- $\Sigma(210)[001]$ -->
     <g transform="translate(102.1 55.973574)scale(0.13 -0.13)">
      <defs>
       <path id="CMR17-6" d="M 2067 2096 
C 2112 2147 2112 2160 2112 2179 
C 2112 2204 2086 2243 2080 2255 
L 819 4185 
L 2368 4185 
C 3430 4185 3750 3956 3859 2943 
L 3974 2943 
L 3821 4352 
L 435 4352 
C 301 4352 294 4345 294 4211 
L 1773 1943 
L 346 121 
C 301 64 301 57 301 44 
C 301 0 339 0 435 0 
L 3821 0 
L 3974 1459 
L 3859 1459 
C 3757 427 3392 217 2355 217 
L 589 217 
L 2067 2096 
z
" transform="scale(0.015625)"/>
       <path id="CMR17-28" d="M 1958 -1562 
C 1958 -1556 1958 -1543 1939 -1524 
C 1645 -1223 858 -403 858 1596 
C 858 3595 1632 4408 1946 4729 
C 1946 4735 1958 4748 1958 4767 
C 1958 4787 1939 4800 1914 4800 
C 1843 4800 1299 4325 986 3620 
C 666 2909 576 2218 576 1603 
C 576 1141 621 360 1005 -467 
C 1312 -1133 1837 -1600 1914 -1600 
C 1946 -1600 1958 -1588 1958 -1562 
z
" transform="scale(0.015625)"/>
       <path id="CMR17-29" d="M 1683 1596 
C 1683 2057 1638 2839 1254 3665 
C 947 4332 422 4800 346 4800 
C 326 4800 301 4793 301 4761 
C 301 4748 307 4742 314 4729 
C 621 4408 1402 3595 1402 1603 
C 1402 -396 627 -1210 314 -1530 
C 307 -1543 301 -1549 301 -1562 
C 301 -1594 326 -1600 346 -1600 
C 416 -1600 960 -1127 1274 -422 
C 1594 289 1683 981 1683 1596 
z
" transform="scale(0.015625)"/>
      </defs>
      <use xlink:href="#CMR17-6" transform="scale(0.996264)"/>
      <use xlink:href="#CMR17-28" transform="translate(66.509881 0)scale(0.996264)"/>
      <use xlink:href="#CMR17-32" transform="translate(101.790648 0)scale(0.996264)"/>
      <use xlink:href="#CMR17-31" transform="translate(147.481125 0)scale(0.996264)"/>
      <use xlink:href="#CMR17-30" transform="translate(193.171603 0)scale(0.996264)"/>
      <use xlink:href="#CMR17-29" transform="translate(238.86208 0)scale(0.996264)"/>
      <use xlink:href="#CMR17-5b" transform="translate(274.142848 0)scale(0.996264)"/>
      <use xlink:href="#CMR17-30" transform="translate(299.013906 0)scale(0.996264)"/>
      <use xlink:href="#CMR17-30" transform="translate(344.704383 0)scale(0.996264)"/>
      <use xlink:href="#CMR17-31" transform="translate(390.39486 0)scale(0.996264)"/>
      <use xlink:href="#CMR17-5d" transform="translate(436.085337 0)scale(0.996264)"/>
     </g>
    </g>
    <g id="line2d_32">
     <path d="M 65.7 70.261432 
L 78.7 70.261432 
L 91.7 70.261432 
" style="fill: none; stroke: #2ca02c; stroke-opacity: 0.55; stroke-width: 1.5; stroke-linecap: square"/>
    </g>
    <g id="text_13">
     <!-- $\mathrm{guessed}\;\mathrm{by}\;\mathit{sqsgen}$ -->
     <g transform="translate(102.1 74.811432)scale(0.13 -0.13)">
      <defs>
       <path id="CMR17-67" d="M 710 1165 
C 832 1068 1043 960 1299 960 
C 1805 960 2240 1359 2240 1895 
C 2240 2063 2189 2321 1997 2521 
C 2176 2713 2438 2777 2586 2777 
C 2611 2777 2650 2777 2682 2758 
C 2656 2751 2598 2726 2598 2623 
C 2598 2540 2656 2483 2739 2483 
C 2835 2483 2886 2547 2886 2630 
C 2886 2751 2790 2880 2586 2880 
C 2330 2880 2106 2758 1926 2591 
C 1734 2764 1504 2828 1299 2828 
C 794 2828 358 2431 358 1895 
C 358 1527 570 1294 634 1230 
C 442 1004 442 742 442 710 
C 442 544 506 300 723 166 
C 390 82 128 -184 128 -517 
C 128 -996 736 -1344 1466 -1344 
C 2170 -1344 2803 -1009 2803 -510 
C 2803 384 1856 384 1363 384 
C 1216 384 954 384 922 390 
C 723 422 589 601 589 825 
C 589 883 589 1024 710 1165 
z
M 1299 1068 
C 736 1068 736 1766 736 1895 
C 736 2024 736 2719 1299 2719 
C 1862 2719 1862 2024 1862 1895 
C 1862 1766 1862 1068 1299 1068 
z
M 1466 -1236 
C 826 -1236 384 -883 384 -517 
C 384 -311 493 -118 634 -11 
C 794 102 858 102 1293 102 
C 1818 102 2547 102 2547 -517 
C 2547 -883 2106 -1236 1466 -1236 
z
" transform="scale(0.015625)"/>
       <path id="CMR17-65" d="M 2438 1503 
C 2464 1529 2464 1542 2464 1606 
C 2464 2251 2118 2816 1389 2816 
C 710 2816 173 2175 173 1394 
C 173 554 781 -64 1459 -64 
C 2176 -64 2458 619 2458 755 
C 2458 800 2419 800 2406 800 
C 2362 800 2355 787 2330 709 
C 2189 270 1837 51 1504 51 
C 1229 51 954 206 781 490 
C 582 819 582 1200 582 1503 
L 2438 1503 
z
M 589 1600 
C 634 2511 1126 2713 1382 2713 
C 1818 2713 2112 2308 2118 1600 
L 589 1600 
z
" transform="scale(0.015625)"/>
       <path id="CMR17-64" d="M 1869 4345 
L 1869 4179 
C 2246 4179 2304 4141 2304 3843 
L 2304 2371 
C 2278 2403 2016 2816 1498 2816 
C 845 2816 211 2228 211 1376 
C 211 529 806 -64 1434 -64 
C 1978 -64 2259 361 2291 406 
L 2291 -64 
L 3066 -13 
L 3066 154 
C 2688 154 2630 193 2630 503 
L 2630 4416 
L 1869 4345 
z
M 2291 762 
C 2291 568 2176 393 2029 264 
C 1811 70 1594 38 1472 38 
C 1286 38 621 135 621 1369 
C 621 2636 1363 2713 1530 2713 
C 1824 2713 2061 2545 2208 2313 
C 2291 2177 2291 2157 2291 2041 
L 2291 762 
z
" transform="scale(0.015625)"/>
       <path id="CMR17-62" d="M 960 4416 
L 198 4345 
L 198 4179 
C 576 4179 634 4141 634 3843 
L 634 -13 
L 749 -13 
L 934 445 
C 1120 141 1395 -64 1766 -64 
C 2406 -64 3053 503 3053 1382 
C 3053 2209 2477 2816 1830 2816 
C 1434 2816 1152 2603 960 2351 
L 960 4416 
z
M 973 2022 
C 973 2138 973 2157 1062 2293 
C 1312 2681 1670 2713 1792 2713 
C 1984 2713 2643 2610 2643 1388 
C 2643 109 1888 38 1734 38 
C 1536 38 1248 115 1043 490 
C 973 613 973 626 973 742 
L 973 2022 
z
" transform="scale(0.015625)"/>
       <path id="CMR17-79" d="M 2496 2183 
C 2656 2579 2944 2585 3034 2585 
L 3034 2752 
C 2912 2745 2752 2739 2630 2739 
C 2496 2739 2285 2739 2157 2752 
L 2157 2585 
C 2400 2566 2406 2384 2406 2332 
C 2406 2268 2394 2235 2362 2158 
L 1664 409 
L 902 2300 
C 870 2378 870 2423 870 2430 
C 870 2572 1018 2585 1171 2585 
L 1171 2752 
C 1018 2739 742 2739 582 2739 
C 410 2739 205 2739 64 2752 
L 64 2585 
C 410 2585 448 2553 531 2345 
L 1485 -31 
C 1197 -795 1030 -1242 627 -1242 
C 557 -1242 397 -1223 282 -1106 
C 429 -1093 493 -1002 493 -892 
C 493 -782 416 -685 288 -685 
C 147 -685 77 -782 77 -899 
C 77 -1158 339 -1344 627 -1344 
C 998 -1344 1229 -983 1357 -659 
L 2496 2183 
z
" transform="scale(0.015625)"/>
       <path id="CMTI12-73" d="M 2445 2361 
C 2214 2335 2202 2143 2202 2118 
C 2202 2047 2246 1958 2374 1958 
C 2522 1958 2630 2073 2630 2291 
C 2630 2577 2374 2816 1965 2816 
C 1197 2816 973 2175 973 1900 
C 973 1660 1094 1524 1152 1459 
C 1261 1355 1382 1323 1658 1258 
C 1818 1226 2144 1148 2144 793 
C 2144 620 1990 64 1286 64 
C 1056 64 736 152 666 448 
C 973 460 973 723 973 736 
C 973 870 858 921 774 921 
C 723 921 474 896 474 544 
C 474 158 838 -64 1280 -64 
C 2176 -64 2458 640 2458 986 
C 2458 1543 2003 1647 1696 1718 
C 1523 1757 1293 1809 1293 2099 
C 1293 2265 1434 2687 1952 2687 
C 2214 2687 2400 2558 2445 2361 
z
" transform="scale(0.015625)"/>
       <path id="CMTI12-71" d="M 3098 2662 
C 3104 2687 3110 2726 3110 2751 
C 3110 2783 3085 2809 3053 2809 
C 3002 2809 2765 2592 2662 2394 
C 2592 2579 2438 2816 2125 2816 
C 1427 2816 691 1838 691 906 
C 691 338 992 -64 1427 -64 
C 1658 -64 1888 64 2106 287 
L 2112 281 
C 2029 -32 1965 -295 1869 -676 
C 1779 -1012 1779 -1025 1370 -1031 
C 1286 -1031 1229 -1031 1229 -1152 
C 1229 -1216 1293 -1216 1318 -1216 
C 1510 -1216 1728 -1204 1926 -1204 
C 2131 -1204 2349 -1216 2547 -1216 
C 2586 -1216 2662 -1216 2662 -1101 
C 2662 -1031 2624 -1031 2509 -1031 
C 2368 -1031 2202 -1031 2202 -937 
C 2202 -900 2202 -887 2214 -831 
L 3098 2662 
z
M 2240 785 
C 2195 613 1811 64 1440 64 
C 1101 64 1088 562 1088 638 
C 1088 957 1293 1711 1395 1966 
C 1562 2362 1850 2687 2125 2687 
C 2515 2687 2554 2094 2554 2075 
L 2534 1985 
L 2240 785 
z
" transform="scale(0.015625)"/>
       <path id="CMTI12-67" d="M 3040 2438 
C 3059 2509 3059 2528 3059 2541 
C 3059 2611 3008 2694 2893 2694 
C 2746 2694 2662 2560 2650 2451 
L 2643 2451 
C 2579 2598 2419 2816 2125 2816 
C 1446 2816 704 1889 704 957 
C 704 370 1024 0 1446 0 
C 1786 0 2074 293 2118 338 
L 1914 -479 
C 1843 -672 1600 -1152 1082 -1152 
C 1011 -1152 794 -1152 627 -1088 
C 768 -1031 826 -903 826 -813 
C 826 -730 768 -628 621 -628 
C 493 -628 333 -736 333 -941 
C 333 -1178 582 -1280 1075 -1280 
C 1728 -1280 2208 -871 2336 -373 
L 3040 2438 
z
M 2246 830 
C 2195 619 1805 128 1459 128 
C 1114 128 1101 619 1101 696 
C 1101 1002 1293 1723 1395 1966 
C 1555 2362 1843 2687 2125 2687 
C 2509 2687 2560 2138 2560 2100 
C 2560 2087 2554 2055 2541 1998 
L 2246 830 
z
" transform="scale(0.015625)"/>
       <path id="CMTI12-65" d="M 1472 1472 
C 1696 1472 2899 1472 2899 2282 
C 2899 2572 2662 2816 2285 2816 
C 1619 2816 730 2160 730 1034 
C 730 393 1062 -64 1606 -64 
C 2400 -64 2925 577 2925 666 
C 2925 710 2874 761 2835 761 
C 2816 761 2810 755 2758 698 
C 2419 241 1939 64 1613 64 
C 1190 64 1133 565 1133 768 
C 1133 1047 1178 1224 1242 1472 
L 1472 1472 
z
M 1280 1600 
C 1536 2623 2163 2687 2278 2687 
C 2534 2687 2682 2507 2682 2288 
C 2682 1600 1619 1600 1414 1600 
L 1280 1600 
z
" transform="scale(0.015625)"/>
       <path id="CMTI12-6e" d="M 1587 1730 
C 1626 1870 1971 2687 2586 2687 
C 2880 2687 2880 2368 2880 2260 
C 2880 1864 2598 1098 2490 785 
C 2432 625 2406 568 2406 434 
C 2406 127 2605 -64 2867 -64 
C 3462 -64 3667 887 3667 913 
C 3667 970 3610 970 3584 970 
C 3507 970 3501 951 3475 855 
C 3418 638 3245 64 2886 64 
C 2790 64 2739 108 2739 255 
C 2739 408 2810 606 2861 734 
C 3027 1200 3245 1794 3245 2164 
C 3245 2502 3098 2816 2605 2816 
C 2208 2816 1907 2585 1696 2298 
C 1677 2585 1478 2816 1184 2816 
C 1037 2816 870 2751 736 2477 
C 614 2241 531 1858 531 1845 
C 531 1794 563 1781 621 1781 
C 691 1781 698 1787 736 1934 
C 832 2311 954 2687 1171 2687 
C 1338 2687 1338 2502 1338 2426 
C 1338 2305 1312 2164 1286 2075 
L 819 210 
C 794 121 794 115 794 89 
C 794 12 845 -64 960 -64 
C 1107 -64 1171 51 1197 159 
L 1587 1730 
z
" transform="scale(0.015625)"/>
      </defs>
      <use xlink:href="#CMR17-67" transform="scale(0.996264)"/>
      <use xlink:href="#CMR17-75" transform="translate(45.690477 0)scale(0.996264)"/>
      <use xlink:href="#CMR17-65" transform="translate(96.585847 0)scale(0.996264)"/>
      <use xlink:href="#CMR17-73" transform="translate(137.071507 0)scale(0.996264)"/>
      <use xlink:href="#CMR17-73" transform="translate(172.872845 0)scale(0.996264)"/>
      <use xlink:href="#CMR17-65" transform="translate(208.674183 0)scale(0.996264)"/>
      <use xlink:href="#CMR17-64" transform="translate(249.159843 0)scale(0.996264)"/>
      <use xlink:href="#CMR17-62" transform="translate(327.729222 0)scale(0.996264)"/>
      <use xlink:href="#CMR17-79" transform="translate(376.022137 0)scale(0.996264)"/>
      <use xlink:href="#CMTI12-73" transform="translate(453.290228 0)scale(0.996264)"/>
      <use xlink:href="#CMTI12-71" transform="translate(493.141321 0)scale(0.996264)"/>
      <use xlink:href="#CMTI12-73" transform="translate(537.973657 0)scale(0.996264)"/>
      <use xlink:href="#CMTI12-67" transform="translate(577.82475 0)scale(0.996264)"/>
      <use xlink:href="#CMTI12-65" transform="translate(622.657086 0)scale(0.996264)"/>
      <use xlink:href="#CMTI12-6e" transform="translate(667.489423 0)scale(0.996264)"/>
     </g>
    </g>
    <g id="line2d_33">
     <path d="M 65.7 88.379744 
L 78.7 88.379744 
L 91.7 88.379744 
" style="fill: none; stroke: #1f77b4; stroke-opacity: 0.95; stroke-width: 1.5; stroke-linecap: square"/>
    </g>
    <g id="text_14">
     <!-- $\mathrm{manual}$ -->
     <g transform="translate(102.1 92.929744)scale(0.13 -0.13)">
      <defs>
       <path id="CMR17-6d" d="M 4326 1954 
C 4326 2276 4269 2816 3507 2816 
C 3072 2816 2771 2520 2656 2173 
L 2650 2173 
C 2573 2700 2195 2816 1837 2816 
C 1331 2816 1069 2424 973 2166 
L 966 2166 
L 966 2816 
L 211 2745 
L 211 2578 
C 589 2578 646 2540 646 2231 
L 646 443 
C 646 198 621 166 211 166 
L 211 0 
C 365 12 646 12 813 12 
C 979 12 1267 12 1421 0 
L 1421 166 
C 1011 166 986 192 986 443 
L 986 1678 
C 986 2269 1344 2713 1792 2713 
C 2266 2713 2317 2289 2317 1980 
L 2317 443 
C 2317 198 2291 166 1882 166 
L 1882 0 
C 2035 12 2317 12 2483 12 
C 2650 12 2938 12 3091 0 
L 3091 166 
C 2682 166 2656 192 2656 443 
L 2656 1678 
C 2656 2269 3014 2713 3462 2713 
C 3936 2713 3987 2289 3987 1980 
L 3987 443 
C 3987 198 3962 166 3552 166 
L 3552 0 
C 3706 12 3987 12 4154 12 
C 4320 12 4608 12 4762 0 
L 4762 166 
C 4352 166 4326 192 4326 443 
L 4326 1954 
z
" transform="scale(0.015625)"/>
       <path id="CMR17-6c" d="M 979 4416 
L 218 4345 
L 218 4179 
C 595 4179 653 4141 653 3835 
L 653 439 
C 653 198 627 166 218 166 
L 218 0 
C 371 12 653 12 813 12 
C 979 12 1261 12 1414 0 
L 1414 166 
C 1005 166 979 191 979 439 
L 979 4416 
z
" transform="scale(0.015625)"/>
      </defs>
      <use xlink:href="#CMR17-6d" transform="scale(0.996264)"/>
      <use xlink:href="#CMR17-61" transform="translate(76.91959 0)scale(0.996264)"/>
      <use xlink:href="#CMR17-6e" transform="translate(122.610067 0)scale(0.996264)"/>
      <use xlink:href="#CMR17-75" transform="translate(170.902983 0)scale(0.996264)"/>
      <use xlink:href="#CMR17-61" transform="translate(221.798353 0)scale(0.996264)"/>
      <use xlink:href="#CMR17-6c" transform="translate(267.48883 0)scale(0.996264)"/>
     </g>
    </g>
   </g>
  </g>
 </g>
 <defs>
  <clipPath id="pa5d31608bc">
   <rect x="54" y="34.56" width="334.8" height="217.44"/>
  </clipPath>
 </defs>
</svg>
