<svg role="img" aria-label="TU Wien - Hauptseite" version="1.1" id="tuw-logo" xmlns="http://www.w3.org/2000/svg" x="0px"
     y="0px" viewBox="0 0 97 97" style="enable-background:new 0 0 97 97;" xml:space="preserve">
                        <g>
                            <path style="fill:#006699;" d="M86.5,1c5.2,0,9.5,4.3,9.5,9.5l0,76c0,5.3-4.3,9.5-9.5,9.5h-76C5.3,96,1,91.7,1,86.5l0-76C1,5.3,5.3,1,10.5,1
                                H86.5z"></path>
                            <path style="fill: #FFF;" d="M21.1,23.6h10.1v33.7H21.1V23.6z M8.3,10.5h35.5v10.1H8.3V10.5z M29.7,69.6h-3.4l-2.6,10.5l-3.1-10.5h-2.4
                                l-3.1,10.5l-2.6-10.5H9.2l4.5,16.7h2.7l3.1-10.1l3.1,10.1h2.7L29.7,69.6z M86.3,86.3V69.6h-3.3v10.2l-6.6-10.2h-2.9v16.7h3.3V76
                                l6.6,10.3H86.3z M63,86.3v-2.9h-7.7v-4.1h6.6v-2.9h-6.6v-3.9H63v-2.9h-11v16.7H63z M40.8,69.6h-3.3v16.7h3.3V69.6z M65.9,57.6
                                l-0.5,0c-9.5-1-16.9-9-16.9-18.8V10.5h10.3l0,28c0,4.1,2.8,7.8,6.7,8.7c0.2,0,0.3,0.1,0.5,0.1L65.9,57.6z M68.9,47.3
                                c0.2,0,0.3,0,0.4-0.1c3.8-1,6.7-4.6,6.7-8.7l-0.1-28h10.3v28.1c0,9.8-7.4,17.9-16.9,18.9l-0.4,0L68.9,47.3z"></path>
                        </g>
                </svg>
